<svg xmlns="http://www.w3.org/2000/svg" xmlns:xlink="http://www.w3.org/1999/xlink" fill="none" version="1.1" width="10" height="10" viewBox="0 0 10 10"><g style="mix-blend-mode:passthrough"><g><path d="M0,5C0,7.7615,2.2385,10,5,10C7.7615,10,10,7.7615,10,5C10,2.2385,7.7615,0,5,0C2.2385,0,0,2.2385,0,5ZM5.01758,3.21948C5.02344,2.82886,5.01758,2.42261,5.00586,1.98901L5.70703,1.98315Q5.71582,2.63354,5.70703,3.21948L7.03906,3.21948C6.9375,5.573,6.9082,7.06323,7.14844,7.06323C7.22461,7.06323,7.27344,6.83081,7.29102,6.27808C7.42969,6.41284,7.69922,6.56128,7.86719,6.61597C7.79492,7.50269,7.5918,7.74097,7.11133,7.74097C6.48828,7.74097,6.32031,7.02612,6.28906,5.80933L5.98242,6.22729C5.83984,6.10425,5.64062,5.95776,5.41992,5.80347C5.19141,6.63354,4.8125,7.29175,4.16602,7.7937C4.08789,7.65698,3.81641,7.34644,3.6543,7.20776C4.27344,6.78198,4.62109,6.17847,4.80664,5.39722L4.17773,5.00464L4.21289,5.21948L3.58398,5.43433L3.58398,6.948C3.58398,7.29175,3.52344,7.48315,3.33203,7.59839C3.14453,7.71167,2.88086,7.74097,2.49023,7.74097C2.4668,7.54956,2.38281,7.25073,2.29883,7.04565C2.50977,7.05737,2.72461,7.05737,2.79688,7.05737C2.86914,7.05737,2.89258,7.03394,2.89258,6.948L2.89258,5.66284L2.32227,5.85229L2.16016,5.14526C2.36523,5.09644,2.61719,5.02222,2.89258,4.94409L2.89258,3.86597L2.25195,3.86597L2.25195,3.19995L2.89258,3.19995L2.89258,1.99292L3.58398,1.99292L3.58398,3.19995L4.11719,3.19995L4.11719,3.86597L3.58398,3.86597L3.58398,4.70581L4.09961,4.53979L4.16016,4.88354L4.51367,4.43628L4.93359,4.67456C4.96875,4.4187,4.98633,4.14917,5,3.86597L4.23047,3.86597L4.23047,3.21948L5.01758,3.21948ZM6.2832,5.51831C6.2832,5.03198,6.29492,4.4812,6.30664,3.86597L5.68359,3.86597C5.66016,4.28979,5.62305,4.68237,5.56836,5.04956C5.83984,5.20776,6.0918,5.37378,6.2832,5.51831Z" fill-rule="evenodd" fill="#E6A23C" fill-opacity="1"/></g></g></svg>