<svg xmlns="http://www.w3.org/2000/svg" xmlns:xlink="http://www.w3.org/1999/xlink" fill="none" version="1.1" width="22.939453125" height="21.083984375" viewBox="0 0 22.939453125 21.083984375"><g><rect x="0" y="0" width="22.939435958862305" height="21.083908081054688" rx="0" fill="#FFFFFF" fill-opacity="0.009999999776482582"/><g><g><path d="M18.769046940994265,16.04204964084625L6.256346940994263,16.04204964084625L6.256346940994263,9.625349640846252C6.256346940994263,6.587779640846252,9.057406940994262,4.125349640846252,12.512686940994262,4.125349640846252C15.967976940994262,4.125349640846252,18.769046940994265,6.587779640846252,18.769046940994265,9.625349640846252L18.769046940994265,16.04204964084625Z" fill="#FF3838" fill-opacity="1"/></g><g><path d="M20.85400944099426,20.25035011768341L4.170409440994263,20.25035011768341Q4.071918040994262,20.25035011768341,3.9753194409942627,20.23113511768341Q3.878720440994263,20.211920117683412,3.7877264409942626,20.17422911768341Q3.6967314409942627,20.13653811768341,3.614839440994263,20.08182011768341Q3.532946440994263,20.02710111768341,3.4633024409942625,19.95745711768341Q3.3936584409942627,19.88781311768341,3.3389394409942628,19.80592011768341Q3.284221440994263,19.72402811768341,3.246530440994263,19.63303311768341Q3.2088394409942627,19.542039117683412,3.1896244409942627,19.44544011768341Q3.1704094409942627,19.34884151768341,3.1704094409942627,19.25035011768341Q3.1704094409942627,19.15185871768341,3.1896244409942627,19.05526011768341Q3.2088394409942627,18.95866111768341,3.246530440994263,18.86766711768341Q3.284221440994263,18.77667211768341,3.3389394409942628,18.69478011768341Q3.3936584409942627,18.61288711768341,3.4633024409942625,18.54324311768341Q3.532946440994263,18.47359911768341,3.614839440994263,18.41888011768341Q3.6967314409942627,18.36416211768341,3.7877264409942626,18.32647111768341Q3.878720440994263,18.28878011768341,3.9753194409942627,18.26956511768341Q4.071918040994262,18.25035011768341,4.170409440994263,18.25035011768341L20.85400944099426,18.25035011768341Q20.952509440994262,18.25035011768341,21.04910944099426,18.26956511768341Q21.145709440994263,18.28878011768341,21.23670944099426,18.32647111768341Q21.327709440994262,18.36416211768341,21.409509440994263,18.41888011768341Q21.491409440994264,18.47359911768341,21.56110944099426,18.54324311768341Q21.630709440994263,18.61288711768341,21.685409440994263,18.69478011768341Q21.740209440994263,18.77667211768341,21.777909440994264,18.86766711768341Q21.815509440994262,18.95866111768341,21.834809440994263,19.05526011768341Q21.85400944099426,19.15185871768341,21.85400944099426,19.25035011768341Q21.85400944099426,19.34884151768341,21.834809440994263,19.44544011768341Q21.815509440994262,19.542039117683412,21.777909440994264,19.63303311768341Q21.740209440994263,19.72402811768341,21.685409440994263,19.80592011768341Q21.630709440994263,19.88781311768341,21.56110944099426,19.95745711768341Q21.491409440994264,20.02710111768341,21.409509440994263,20.08182011768341Q21.327709440994262,20.13653811768341,21.23670944099426,20.17422911768341Q21.145709440994263,20.211920117683412,21.04910944099426,20.23113511768341Q20.952509440994262,20.25035011768341,20.85400944099426,20.25035011768341ZM21.85400944099426,19.25035011768341Q21.85400944099426,19.34884151768341,21.834809440994263,19.44544011768341Q21.815509440994262,19.542039117683412,21.777909440994264,19.63303311768341Q21.740209440994263,19.72402811768341,21.685409440994263,19.80592011768341Q21.630709440994263,19.88781311768341,21.56110944099426,19.95745711768341Q21.491409440994264,20.02710111768341,21.409509440994263,20.08182011768341Q21.327709440994262,20.13653811768341,21.23670944099426,20.17422911768341Q21.145709440994263,20.211920117683412,21.04910944099426,20.23113511768341Q20.952509440994262,20.25035011768341,20.85400944099426,20.25035011768341Q20.755509440994263,20.25035011768341,20.65890944099426,20.23113511768341Q20.562309440994262,20.211920117683412,20.47130944099426,20.17422911768341Q20.380309440994264,20.13653811768341,20.298409440994263,20.08182011768341Q20.216509440994262,20.02710111768341,20.146909440994264,19.95745711768341Q20.077209440994263,19.88781311768341,20.022509440994263,19.80592011768341Q19.967809440994262,19.72402811768341,19.930109440994265,19.63303311768341Q19.892409440994264,19.542039117683412,19.873209440994263,19.44544011768341Q19.85400944099426,19.34884151768341,19.85400944099426,19.25035011768341Q19.85400944099426,19.15185871768341,19.873209440994263,19.05526011768341Q19.892409440994264,18.95866111768341,19.930109440994265,18.86766711768341Q19.967809440994262,18.77667211768341,20.022509440994263,18.69478011768341Q20.077209440994263,18.61288711768341,20.146909440994264,18.54324311768341Q20.216509440994262,18.47359911768341,20.298409440994263,18.41888011768341Q20.380309440994264,18.36416211768341,20.47130944099426,18.32647111768341Q20.562309440994262,18.28878011768341,20.65890944099426,18.26956511768341Q20.755509440994263,18.25035011768341,20.85400944099426,18.25035011768341Q20.952509440994262,18.25035011768341,21.04910944099426,18.26956511768341Q21.145709440994263,18.28878011768341,21.23670944099426,18.32647111768341Q21.327709440994262,18.36416211768341,21.409509440994263,18.41888011768341Q21.491409440994264,18.47359911768341,21.56110944099426,18.54324311768341Q21.630709440994263,18.61288711768341,21.685409440994263,18.69478011768341Q21.740209440994263,18.77667211768341,21.777909440994264,18.86766711768341Q21.815509440994262,18.95866111768341,21.834809440994263,19.05526011768341Q21.85400944099426,19.15185871768341,21.85400944099426,19.25035011768341ZM5.170409440994263,19.25035011768341Q5.170409440994263,19.34884151768341,5.151194440994263,19.44544011768341Q5.131979440994263,19.542039117683412,5.094288440994263,19.63303311768341Q5.0565974409942624,19.72402811768341,5.001879440994263,19.80592011768341Q4.947160440994263,19.88781311768341,4.877516440994262,19.95745711768341Q4.807872440994263,20.02710111768341,4.725979440994263,20.08182011768341Q4.644087440994262,20.13653811768341,4.553092440994263,20.17422911768341Q4.462098440994263,20.211920117683412,4.365499440994263,20.23113511768341Q4.268900840994263,20.25035011768341,4.170409440994263,20.25035011768341Q4.071918040994262,20.25035011768341,3.9753194409942627,20.23113511768341Q3.878720440994263,20.211920117683412,3.7877264409942626,20.17422911768341Q3.6967314409942627,20.13653811768341,3.614839440994263,20.08182011768341Q3.532946440994263,20.02710111768341,3.4633024409942625,19.95745711768341Q3.3936584409942627,19.88781311768341,3.3389394409942628,19.80592011768341Q3.284221440994263,19.72402811768341,3.246530440994263,19.63303311768341Q3.2088394409942627,19.542039117683412,3.1896244409942627,19.44544011768341Q3.1704094409942627,19.34884151768341,3.1704094409942627,19.25035011768341Q3.1704094409942627,19.15185871768341,3.1896244409942627,19.05526011768341Q3.2088394409942627,18.95866111768341,3.246530440994263,18.86766711768341Q3.284221440994263,18.77667211768341,3.3389394409942628,18.69478011768341Q3.3936584409942627,18.61288711768341,3.4633024409942625,18.54324311768341Q3.532946440994263,18.47359911768341,3.614839440994263,18.41888011768341Q3.6967314409942627,18.36416211768341,3.7877264409942626,18.32647111768341Q3.878720440994263,18.28878011768341,3.9753194409942627,18.26956511768341Q4.071918040994262,18.25035011768341,4.170409440994263,18.25035011768341Q4.268900840994263,18.25035011768341,4.365499440994263,18.26956511768341Q4.462098440994263,18.28878011768341,4.553092440994263,18.32647111768341Q4.644087440994262,18.36416211768341,4.725979440994263,18.41888011768341Q4.807872440994263,18.47359911768341,4.877516440994262,18.54324311768341Q4.947160440994263,18.61288711768341,5.001879440994263,18.69478011768341Q5.0565974409942624,18.77667211768341,5.094288440994263,18.86766711768341Q5.131979440994263,18.95866111768341,5.151194440994263,19.05526011768341Q5.170409440994263,19.15185871768341,5.170409440994263,19.25035011768341Z" fill="#FF3838" fill-opacity="1"/></g><g transform="matrix(0.7733505964279175,-0.633978545665741,0.7276363968849182,0.6859630346298218,-3.863207380417414,3.193427440907726)"><path d="M1.9545005034942626,7.797485734596252L1.2089795034942625,6.440303734596252Q1.1615595034942627,6.353978734596253,1.1318925034942628,6.260061734596253Q1.1022255034942627,6.166144734596252,1.0914505034942628,6.068244734596252Q1.0806785034942628,5.970344034596253,1.0892075034942628,5.872222834596252Q1.0977385034942628,5.774101734596252,1.1252495034942627,5.679530734596252Q1.1527595034942628,5.584958734596253,1.1981905034942626,5.497571734596252Q1.2436225034942627,5.410184734596252,1.3052295034942627,5.333339734596253Q1.3668365034942627,5.256494734596252,1.4422515034942627,5.193145734596253Q1.5176665034942627,5.129795734596253,1.6039905034942628,5.082376734596252Q1.6903155034942627,5.0349567345962525,1.7842325034942628,5.005289734596253Q1.8781495034942628,4.975622734596253,1.9760495034942627,4.964847734596252Q2.0739502034942627,4.954075734596253,2.1720714034942628,4.962604734596252Q2.2701925034942625,4.971135734596253,2.3647635034942627,4.998646734596252Q2.4593355034942626,5.026156734596253,2.5467225034942627,5.071587734596252Q2.6341095034942628,5.117019734596252,2.710954503494263,5.178626734596253Q2.787799503494263,5.240233734596252,2.8511485034942625,5.315648734596253Q2.9144985034942628,5.391063734596252,2.961917503494263,5.4773877345962525L3.707438503494263,6.834571734596253Q3.7548585034942628,6.920896734596252,3.7845285034942626,7.014815734596253Q3.814188503494263,7.108725734596252,3.8249685034942624,7.206635734596253Q3.8357385034942624,7.304535734596253,3.827208503494263,7.4026557345962525Q3.8186785034942625,7.500775734596252,3.7911685034942626,7.595345734596252Q3.7636585034942627,7.689915734596252,3.7182285034942626,7.777305734596252Q3.6727985034942625,7.8646957345962525,3.6111885034942626,7.941535734596252Q3.5495785034942626,8.018375734596253,3.474168503494263,8.081725734596253Q3.3987485034942626,8.145075734596253,3.312428503494263,8.192495734596253Q3.2260985034942626,8.239915734596252,3.1321885034942625,8.269585734596252Q3.0382685034942627,8.299255734596253,2.9403685034942626,8.310025734596252Q2.8424685034942625,8.320805734596252,2.7443465034942625,8.312275734596252Q2.6462255034942626,8.303735734596252,2.551654503494263,8.276225734596252Q2.457082503494263,8.248715734596253,2.369695503494263,8.203285734596253Q2.2823085034942627,8.157855734596252,2.2054635034942627,8.096245734596252Q2.1286187034942627,8.034645734596253,2.065269303494263,7.959225734596252Q2.0019199034942625,7.8838157345962525,1.9545005034942626,7.797485734596252ZM3.8309685034942627,7.316025734596252Q3.8309685034942627,7.4145257345962525,3.8117585034942625,7.5111157345962525Q3.7925385034942627,7.607715734596253,3.7548485034942627,7.698715734596252Q3.7171585034942627,7.789705734596252,3.6624385034942626,7.871595734596252Q3.6077185034942625,7.9534957345962525,3.538078503494263,8.023135734596252Q3.4684285034942626,8.092775734596252,3.386538503494263,8.147495734596252Q3.3046485034942625,8.202215734596253,3.213648503494263,8.239905734596253Q3.1226585034942627,8.277595734596252,3.0260605034942625,8.296815734596253Q2.9294615034942626,8.316025734596252,2.830969503494263,8.316025734596252Q2.7324785034942627,8.316025734596252,2.635879503494263,8.296815734596253Q2.539280503494263,8.277595734596252,2.4482865034942627,8.239905734596253Q2.3572925034942624,8.202215734596253,2.275399503494263,8.147495734596252Q2.193506503494263,8.092775734596252,2.1238630034942627,8.023135734596252Q2.0542191034942627,7.9534957345962525,1.9995002034942626,7.871595734596252Q1.9447815034942626,7.789705734596252,1.9070905034942627,7.698715734596252Q1.8693995034942628,7.607715734596253,1.8501845034942628,7.5111157345962525Q1.8309695034942628,7.4145257345962525,1.8309695034942628,7.316025734596252Q1.8309695034942628,7.217535734596252,1.8501845034942628,7.1209357345962525Q1.8693995034942628,7.024335734596253,1.9070905034942627,6.933345734596252Q1.9447815034942626,6.842351734596252,1.9995002034942626,6.760459734596252Q2.0542191034942627,6.678566734596252,2.1238630034942627,6.608922734596252Q2.193506503494263,6.539278734596253,2.275399503494263,6.484559734596252Q2.3572925034942624,6.429840734596253,2.4482865034942627,6.392149734596252Q2.539280503494263,6.354458734596252,2.635879503494263,6.335244734596253Q2.7324785034942627,6.316029734596253,2.830969503494263,6.316029734596253Q2.9294615034942626,6.316029734596253,3.0260605034942625,6.335244734596253Q3.1226585034942627,6.354458734596252,3.213648503494263,6.392149734596252Q3.3046485034942625,6.429840734596253,3.386538503494263,6.484559734596252Q3.4684285034942626,6.539278734596253,3.538078503494263,6.608922734596252Q3.6077185034942625,6.678566734596252,3.6624385034942626,6.760459734596252Q3.7171585034942627,6.842351734596252,3.7548485034942627,6.933345734596252Q3.7925385034942627,7.024335734596253,3.8117585034942625,7.1209357345962525Q3.8309685034942627,7.217535734596252,3.8309685034942627,7.316025734596252ZM3.0854485034942627,5.958845734596252Q3.0854485034942627,6.057337134596253,3.0662335034942627,6.153935734596253Q3.0470185034942627,6.250534734596252,3.0093275034942626,6.3415287345962525Q2.9716365034942624,6.432523734596252,2.9169185034942626,6.514415734596253Q2.8621995034942627,6.596308734596253,2.792555503494263,6.665952734596252Q2.7229115034942626,6.735596734596252,2.6410185034942626,6.790315734596253Q2.5591265034942627,6.845033734596252,2.468131503494263,6.882724734596253Q2.3771375034942626,6.9204157345962525,2.2805385034942627,6.9396307345962525Q2.1839399034942626,6.958845734596252,2.0854485034942627,6.958845734596252Q1.9869571034942628,6.958845734596252,1.8903585034942627,6.9396307345962525Q1.7937595034942628,6.9204157345962525,1.7027655034942626,6.882724734596253Q1.6117705034942627,6.845033734596252,1.5298785034942628,6.790315734596253Q1.4479855034942628,6.735596734596252,1.3783415034942625,6.665952734596252Q1.3086975034942627,6.596308734596253,1.2539785034942628,6.514415734596253Q1.1992605034942627,6.432523734596252,1.1615695034942628,6.3415287345962525Q1.1238785034942627,6.250534734596252,1.1046635034942627,6.153935734596253Q1.0854485034942627,6.057337134596253,1.0854485034942627,5.958845734596252Q1.0854485034942627,5.860354334596252,1.1046635034942627,5.763755734596252Q1.1238785034942627,5.667156734596253,1.1615695034942628,5.576162734596252Q1.1992605034942627,5.485167734596253,1.2539785034942628,5.403275734596252Q1.3086975034942627,5.321382734596252,1.3783415034942625,5.251738734596253Q1.4479855034942628,5.1820947345962525,1.5298785034942628,5.127375734596252Q1.6117705034942627,5.072657734596253,1.7027655034942626,5.034966734596252Q1.7937595034942628,4.997275734596252,1.8903585034942627,4.978060734596252Q1.9869571034942628,4.958845734596252,2.0854485034942627,4.958845734596252Q2.1839399034942626,4.958845734596252,2.2805385034942627,4.978060734596252Q2.3771375034942626,4.997275734596252,2.468131503494263,5.034966734596252Q2.5591265034942627,5.072657734596253,2.6410185034942626,5.127375734596252Q2.7229115034942626,5.1820947345962525,2.792555503494263,5.251738734596253Q2.8621995034942627,5.321382734596252,2.9169185034942626,5.403275734596252Q2.9716365034942624,5.485167734596253,3.0093275034942626,5.576162734596252Q3.0470185034942627,5.667156734596253,3.0662335034942627,5.763755734596252Q3.0854485034942627,5.860354334596252,3.0854485034942627,5.958845734596252Z" fill="#FF3838" fill-opacity="1"/></g><g transform="matrix(0.7733505964279175,-0.6339784860610962,0.7276363968849182,0.685962975025177,-0.21063800560864365,4.683934322273217)"><path d="M5.368290472244262,3.231103146636963L6.016473472244263,1.8256841466369629Q6.057722472244262,1.736246146636963,6.115627472244262,1.656574146636963Q6.173531472244263,1.576902146636963,6.245866972244262,1.510058146636963Q6.318202172244263,1.4432141466369628,6.402188472244263,1.3917661466369629Q6.4861744722442625,1.3403171466369628,6.578583472244262,1.3062431466369628Q6.670992472244262,1.2721681466369628,6.768274472244263,1.256777146636963Q6.865555472244263,1.241380146636963,6.963970472244263,1.245267146636963Q7.062385472244262,1.2491501466369628,7.1581514722442625,1.272158146636963Q7.253917472244263,1.295166146636963,7.343356472244263,1.336414146636963Q7.432796472244263,1.3776631466369629,7.512466472244263,1.435568146636963Q7.592136472244263,1.4934731466369628,7.658976472244262,1.5658081466369629Q7.725826472244263,1.638143146636963,7.777276472244263,1.7221291466369628Q7.828726472244263,1.806115146636963,7.862796472244263,1.898524146636963Q7.8968664722442625,1.9909341466369628,7.912266472244262,2.088215146636963Q7.927656472244262,2.185496546636963,7.9237764722442625,2.283911346636963Q7.919886472244263,2.382326146636963,7.896876472244262,2.4780921466369628Q7.8738764722442625,2.5738591466369627,7.832626472244263,2.663296146636963L7.184442472244263,4.068720146636963Q7.1431934722442625,4.158150146636963,7.085288472244263,4.237830146636963Q7.027383472244263,4.317500146636963,6.955048472244263,4.384340146636963Q6.882713472244262,4.4511901466369626,6.798727472244263,4.502630146636963Q6.714741472244262,4.554080146636963,6.6223324722442625,4.588160146636962Q6.529922472244262,4.622230146636963,6.432641472244263,4.637620146636963Q6.335360072244263,4.653010146636963,6.236945272244263,4.6491301466369634Q6.138530472244263,4.645250146636963,6.042764472244262,4.622240146636963Q5.946997472244263,4.5992301466369625,5.857560472244263,4.557990146636962Q5.768122472244262,4.5167401466369625,5.688450472244263,4.458830146636963Q5.608778472244262,4.400930146636963,5.541934472244263,4.328590146636962Q5.475090472244263,4.256260146636963,5.423642472244262,4.172270146636963Q5.372193472244263,4.088280146636963,5.338119472244262,3.995870146636963Q5.304044472244263,3.9034701466369626,5.288653472244262,3.806180146636963Q5.273256472244263,3.708900146636963,5.277143472244263,3.610490146636963Q5.281026472244263,3.5120701466369626,5.304034472244263,3.416310146636963Q5.327042472244263,3.320540146636963,5.368290472244262,3.231103146636963ZM7.276366472244263,3.649910146636963Q7.276366472244263,3.748400146636963,7.257151472244263,3.8450001466369628Q7.237936472244263,3.941600146636963,7.200245472244263,4.032590146636963Q7.1625544722442624,4.123590146636963,7.107836472244263,4.205480146636963Q7.053117472244263,4.287370146636963,6.983473472244262,4.3570201466369625Q6.913829472244263,4.426660146636963,6.831936472244263,4.481380146636963Q6.750044472244262,4.536100146636963,6.659049472244263,4.573790146636963Q6.568055472244263,4.611480146636962,6.471456472244263,4.630690146636963Q6.374857872244263,4.649910146636962,6.276366472244263,4.649910146636962Q6.177875072244262,4.649910146636962,6.081276472244262,4.630690146636963Q5.984677472244263,4.611480146636962,5.893683472244263,4.573790146636963Q5.802688472244263,4.536100146636963,5.720796472244262,4.481380146636963Q5.638903472244262,4.426660146636963,5.569259472244263,4.3570201466369625Q5.499615472244263,4.287370146636963,5.444896472244262,4.205480146636963Q5.390178472244263,4.123590146636963,5.352487472244262,4.032590146636963Q5.314796472244263,3.941600146636963,5.295581472244263,3.8450001466369628Q5.276366472244263,3.748400146636963,5.276366472244263,3.649910146636963Q5.276366472244263,3.551420146636963,5.295581472244263,3.454820146636963Q5.314796472244263,3.358220146636963,5.352487472244262,3.2672301466369627Q5.390178472244263,3.1762321466369627,5.444896472244262,3.0943391466369627Q5.499615472244263,3.012447146636963,5.569259472244263,2.9428031466369626Q5.638903472244262,2.873159146636963,5.720796472244262,2.818440146636963Q5.802688472244263,2.763721146636963,5.893683472244263,2.7260301466369627Q5.984677472244263,2.688339146636963,6.081276472244262,2.669124146636963Q6.177875072244262,2.649910146636963,6.276366472244263,2.649910146636963Q6.374857872244263,2.649910146636963,6.471456472244263,2.669124146636963Q6.568055472244263,2.688339146636963,6.659049472244263,2.7260301466369627Q6.750044472244262,2.763721146636963,6.831936472244263,2.818440146636963Q6.913829472244263,2.873159146636963,6.983473472244262,2.9428031466369626Q7.053117472244263,3.012447146636963,7.107836472244263,3.094340146636963Q7.1625544722442624,3.1762321466369627,7.200245472244263,3.2672301466369627Q7.237936472244263,3.358220146636963,7.257151472244263,3.454820146636963Q7.276366472244263,3.551420146636963,7.276366472244263,3.649910146636963ZM7.924546472244263,2.244490146636963Q7.924546472244263,2.342981546636963,7.9053364722442625,2.439580146636963Q7.886116472244263,2.5361791466369628,7.848426472244263,2.627173146636963Q7.810736472244263,2.718168146636963,7.756016472244262,2.800060146636963Q7.7012964722442625,2.881953146636963,7.631656472244263,2.951597146636963Q7.562016472244263,3.021241146636963,7.480116472244263,3.075960146636963Q7.3982264722442626,3.1306781466369626,7.307236472244263,3.168369146636963Q7.216238472244263,3.206060146636963,7.119639472244263,3.225275146636963Q7.023040472244262,3.244490146636963,6.924549472244262,3.244490146636963Q6.826057472244263,3.244490146636963,6.7294584722442625,3.225275146636963Q6.632859472244263,3.206060146636963,6.541865472244263,3.168369146636963Q6.450871472244263,3.1306781466369626,6.368978872244263,3.075960146636963Q6.287086272244263,3.021241146636963,6.217442372244263,2.951597146636963Q6.147798472244263,2.881953146636963,6.093079472244263,2.800060146636963Q6.038360472244262,2.718168146636963,6.000669472244263,2.627173146636963Q5.962978472244263,2.5361791466369628,5.943763472244263,2.439580146636963Q5.924549472244263,2.342981546636963,5.924549472244263,2.244490146636963Q5.924549472244263,2.145998746636963,5.943763472244263,2.049400146636963Q5.962978472244263,1.952801146636963,6.000669472244263,1.8618071466369628Q6.038360472244262,1.7708121466369628,6.093079472244263,1.688920146636963Q6.147798472244263,1.607027146636963,6.217442372244263,1.5373831466369627Q6.287086272244263,1.467739146636963,6.368978872244263,1.413020146636963Q6.450871472244263,1.358302146636963,6.541865472244263,1.320611146636963Q6.632859472244263,1.2829201466369629,6.7294584722442625,1.2637051466369629Q6.826057472244263,1.244490146636963,6.924549472244262,1.244490146636963Q7.023040472244262,1.244490146636963,7.119639472244263,1.2637051466369629Q7.216238472244263,1.2829201466369629,7.307236472244263,1.320611146636963Q7.3982264722442626,1.358302146636963,7.480116472244263,1.413020146636963Q7.562016472244263,1.467739146636963,7.631656472244263,1.5373831466369627Q7.7012964722442625,1.607027146636963,7.756016472244262,1.688920146636963Q7.810736472244263,1.7708121466369628,7.848426472244263,1.8618071466369628Q7.886116472244263,1.952801146636963,7.9053364722442625,2.049400146636963Q7.924546472244263,2.145998746636963,7.924546472244263,2.244490146636963Z" fill="#FF3838" fill-opacity="1"/></g><g transform="matrix(-0.7733506560325623,-0.6339786052703857,-0.7276363968849182,0.6859630942344666,12.637797464484684,4.762458920829921)"><path d="M7.391262565994262,5.533443047096252L5.300701865994263,5.605801047096253Q5.202269365994263,5.609201047096253,5.1050635659942625,5.593341047096253Q5.007857565994263,5.577481047096253,4.915614565994263,5.542961047096252Q4.823371565994263,5.508437047096253,4.739634565994263,5.4565840470962526Q4.655898565994263,5.404730047096253,4.583887565994263,5.337537047096252Q4.511876565994263,5.270344047096253,4.454357565994263,5.1903930470962525Q4.396838565994263,5.110442047096252,4.356022565994262,5.0208060470962526Q4.315206565994263,4.931170047096252,4.292662565994263,4.835293047096252Q4.270117565994263,4.739417047096253,4.266710565994263,4.640984047096253Q4.2633025659942625,4.542552067096253,4.279166565994263,4.445346347096253Q4.295028565994262,4.348141047096252,4.329549565994263,4.255897047096252Q4.364070565994263,4.163654047096252,4.415923565994262,4.079917047096252Q4.467777565994263,3.996181047096252,4.5349705659942625,3.9241700470962524Q4.602163565994263,3.8521590470962526,4.6821145659942625,3.7946400470962525Q4.762065565994263,3.7371210470962524,4.851701565994262,3.6963050470962524Q4.941337565994263,3.6554890470962524,5.037214565994263,3.6329450470962525Q5.133090565994262,3.6104000470962525,5.231523265994262,3.6069940470962525L7.322082565994263,3.5346390470962525Q7.420512565994263,3.5312310470962522,7.517722565994262,3.5470950470962523Q7.614922565994263,3.5629570470962526,7.707162565994263,3.5974780470962524Q7.799412565994263,3.6319990470962527,7.883142565994262,3.6838520470962526Q7.966882565994263,3.7357060470962526,8.038892565994264,3.8028990470962523Q8.110902565994262,3.8700920470962523,8.168422565994263,3.950043047096252Q8.225942565994263,4.0299940470962525,8.266762565994263,4.119630047096252Q8.307572565994263,4.209266047096253,8.330122565994262,4.305143047096252Q8.352662565994262,4.401019047096252,8.356072565994262,4.499451747096252Q8.359472565994263,4.597884247096252,8.343612565994263,4.695090047096253Q8.327752565994263,4.792296047096253,8.293232565994263,4.884539047096252Q8.258712565994262,4.976782047096252,8.206852565994263,5.060519047096252Q8.155002565994263,5.1442550470962525,8.087812565994263,5.216266047096252Q8.020612565994263,5.288277047096252,7.940662565994263,5.345796047096252Q7.8607125659942625,5.403315047096252,7.771082565994263,5.444131047096253Q7.681442565994263,5.484947047096252,7.5855625659942625,5.507491047096252Q7.489692565994263,5.530036047096252,7.391262565994262,5.533443047096252ZM8.356672565994263,4.534041047096252Q8.356672565994263,4.632532447096253,8.337452565994262,4.729131047096253Q8.318242565994263,4.825730047096252,8.280552565994263,4.9167240470962525Q8.242852565994262,5.007719047096252,8.188142565994262,5.089611047096253Q8.133422565994262,5.171504047096253,8.063772565994263,5.241148047096252Q7.994132565994263,5.310792047096252,7.912242565994262,5.365511047096253Q7.830342565994263,5.420229047096252,7.739352565994263,5.457920047096253Q7.648362565994263,5.4956110470962525,7.551762565994263,5.5148260470962525Q7.455162565994263,5.534041047096252,7.356672565994263,5.534041047096252Q7.258172565994263,5.534041047096252,7.161582565994262,5.5148260470962525Q7.064982565994263,5.4956110470962525,6.9739825659942625,5.457920047096253Q6.882992565994263,5.420229047096252,6.801102565994263,5.365511047096253Q6.719202565994262,5.310792047096252,6.6495625659942625,5.241148047096252Q6.579922565994263,5.171504047096253,6.525202565994263,5.089611047096253Q6.470482565994263,5.007719047096252,6.432792565994262,4.9167240470962525Q6.395102565994263,4.825730047096252,6.375882565994263,4.729131047096253Q6.356672565994263,4.632532447096253,6.356672565994263,4.534041047096252Q6.356672565994263,4.435549647096252,6.375882565994263,4.338951047096252Q6.395102565994263,4.242352047096253,6.432792565994262,4.151358047096252Q6.470482565994263,4.060363047096253,6.525202565994263,3.9784710470962525Q6.579922565994263,3.8965780470962526,6.6495625659942625,3.8269340470962523Q6.719202565994262,3.7572900470962525,6.801102565994263,3.7025710470962525Q6.882992565994263,3.6478530470962527,6.9739825659942625,3.6101620470962525Q7.064982565994263,3.5724710470962524,7.161582565994262,3.5532560470962524Q7.258172565994263,3.5340410470962524,7.356672565994263,3.5340410470962524Q7.455162565994263,3.5340410470962524,7.551762565994263,3.5532560470962524Q7.648362565994263,3.5724710470962524,7.739352565994263,3.6101620470962525Q7.830342565994263,3.6478530470962527,7.912242565994262,3.7025710470962525Q7.994132565994263,3.7572900470962525,8.063772565994263,3.8269340470962523Q8.133422565994262,3.8965780470962526,8.188142565994262,3.9784710470962525Q8.242852565994262,4.060363047096253,8.280552565994263,4.151358047096252Q8.318242565994263,4.242352047096253,8.337452565994262,4.338951047096252Q8.356672565994263,4.435549647096252,8.356672565994263,4.534041047096252ZM6.266112565994263,4.606395247096253Q6.266112565994263,4.7048870470962525,6.246897565994263,4.801485047096253Q6.227682565994263,4.898084047096252,6.189991565994263,4.9890790470962525Q6.1523005659942624,5.080073047096253,6.097582565994263,5.161965047096253Q6.042863565994263,5.243858047096253,5.973219565994262,5.313502047096252Q5.903575565994263,5.383146047096252,5.821682565994263,5.437865047096253Q5.739790565994262,5.492584047096252,5.648795565994263,5.530275047096253Q5.557801565994263,5.567961047096253,5.461202565994263,5.587181047096252Q5.364603965994263,5.606391047096253,5.266112565994263,5.606391047096253Q5.167621165994262,5.606391047096253,5.071022565994262,5.587181047096252Q4.974423565994263,5.567961047096253,4.883429565994263,5.530275047096253Q4.792434565994263,5.492584047096252,4.710542565994262,5.437865047096253Q4.628649565994262,5.383146047096252,4.559005565994263,5.313502047096252Q4.489361565994263,5.243858047096253,4.434642565994262,5.161965047096253Q4.379924565994263,5.080073047096253,4.342233565994262,4.9890790470962525Q4.304542565994263,4.898084047096252,4.285327565994263,4.801485047096253Q4.266112565994263,4.7048870470962525,4.266112565994263,4.606395247096253Q4.266112565994263,4.5079038470962525,4.285327565994263,4.411305047096253Q4.304542565994263,4.314706047096252,4.342233565994262,4.223712047096252Q4.379924565994263,4.132718047096253,4.434642565994262,4.050825047096253Q4.489361565994263,3.9689320470962524,4.559005565994263,3.8992880470962525Q4.628649565994262,3.8296450470962524,4.710542565994262,3.7749260470962525Q4.792434565994263,3.7202070470962525,4.883429565994263,3.6825160470962524Q4.974423565994263,3.644825047096252,5.071022565994262,3.6256100470962522Q5.167621165994262,3.6063950470962522,5.266112565994263,3.6063950470962522Q5.364603965994263,3.6063950470962522,5.461202565994263,3.6256100470962522Q5.557801565994263,3.644825047096252,5.648795565994263,3.6825160470962524Q5.739790565994262,3.7202070470962525,5.821682565994263,3.7749260470962525Q5.903575565994263,3.8296450470962524,5.973219565994262,3.8992880470962525Q6.042863565994263,3.9689320470962524,6.097582565994263,4.050825047096253Q6.1523005659942624,4.132718047096253,6.189991565994263,4.223712047096252Q6.227682565994263,4.314706047096252,6.246897565994263,4.411305047096253Q6.266112565994263,4.5079038470962525,6.266112565994263,4.606395247096253Z" fill="#FF3838" fill-opacity="1"/></g></g></g></svg>