<svg xmlns="http://www.w3.org/2000/svg" xmlns:xlink="http://www.w3.org/1999/xlink" fill="none" version="1.1" width="14" height="14" viewBox="0 0 14 14"><g><path d="M7,0C8.97933,0.052,10.6278,0.736833,11.9455,2.0545C13.2632,3.37217,13.948,5.02067,14,7C13.948,8.97933,13.2632,10.6278,11.9455,11.9455C10.6278,13.2632,8.97933,13.948,7,14C5.02067,13.948,3.37217,13.2632,2.0545,11.9455C0.736833,10.6278,0.052,8.97933,0,7C0.052,5.02067,0.736833,3.37217,2.0545,2.0545C3.37217,0.736833,5.02067,0.052,7,0C7,0,7,0,7,0C7,0,7,0,7,0ZM7,6.1565C7,6.1565,5.375,4.5315,5.375,4.5315C5.25,4.4065,5.10683,4.344,4.9455,4.344C4.78417,4.344,4.6435,4.40383,4.5235,4.5235C4.4035,4.64317,4.34367,4.78383,4.344,4.9455C4.34433,5.10717,4.40683,5.25033,4.5315,5.375C4.5315,5.375,6.1565,7,6.1565,7C6.1565,7,4.5315,8.625,4.5315,8.625C4.4065,8.75,4.344,8.89317,4.344,9.0545C4.344,9.21583,4.40383,9.3565,4.5235,9.4765C4.64317,9.5965,4.78383,9.65633,4.9455,9.656C5.10717,9.65567,5.25033,9.59317,5.375,9.4685C5.375,9.4685,7,7.8435,7,7.8435C7,7.8435,8.625,9.4685,8.625,9.4685C8.79167,9.62483,8.98433,9.67433,9.203,9.617C9.42167,9.55967,9.55967,9.42167,9.617,9.203C9.67433,8.98433,9.62483,8.79167,9.4685,8.625C9.4685,8.625,7.8435,7,7.8435,7C7.8435,7,9.4685,5.375,9.4685,5.375C9.5935,5.25,9.656,5.10683,9.656,4.9455C9.656,4.78417,9.59617,4.6435,9.4765,4.5235C9.35683,4.4035,9.21617,4.34367,9.0545,4.344C8.89283,4.34433,8.74967,4.40683,8.625,4.5315C8.625,4.5315,7,6.1565,7,6.1565C7,6.1565,7,6.1565,7,6.1565Z" fill="#EA0000" fill-opacity="1"/></g></svg>