<svg xmlns="http://www.w3.org/2000/svg" xmlns:xlink="http://www.w3.org/1999/xlink" fill="none" version="1.1" width="2828" height="1923" viewBox="0 0 2828 1923"><g><path d="M1394.0086904296875,1362.56442578125L1235.6366904296874,1358.11042578125L1228.8914904296876,1355.88342578125L1187.5770904296876,1317.87842578125L1186.4528904296876,1316.5424257812501L1132.0697904296876,1225.38742578125L1131.5076904296875,1219.15242578125L1166.2173904296874,1077.37342578125L1183.3613904296876,1056.58842578125L1315.0336904296876,962.91072578125L1338.3606904296876,952.81542578125L1487.7386904296875,936.33642578125L1496.4506904296875,937.67256578125L1589.1976904296876,994.68112578125L1592.2886904296874,999.87722578125L1599.1746904296874,1138.53842578125L1595.6616904296875,1148.33742578125L1523.1506904296875,1259.97842578125L1514.4376904296876,1269.77742578125L1425.6266904296876,1348.01542578125L1393.8676904296876,1362.41642578125L1394.0086904296875,1362.56442578125ZM1275.1236904296875,1317.58142578125L1414.2436904296874,1321.44142578125L1480.5716904296876,1262.94842578125L1546.3376904296874,1161.84642578125L1539.7326904296874,1030.90532578125L1453.1696904296875,977.60822578125L1320.2326904296874,992.30582578125L1215.5415904296874,1066.83242578125L1184.2044904296874,1194.50842578125L1236.6206904296876,1282.24742578125L1275.1236904296875,1317.58142578125Z" fill="#010B1B" fill-opacity="1"/><path d="M1203.1745185546874,925.053L1171.8375185546874,960.535L1094.1265185546874,1059.409L1027.5181185546876,1155.908L1030.8907185546875,1183.373L1051.6884185546876,1266.808L1143.7325185546874,1402.946L1349.0395185546874,1440.654L1402.7195185546875,1459.954L1519.7765185546875,1440.06L1650.1845185546877,1296.6480000000001L1770.3325185546873,1110.034L1809.2585185546875,967.513L1742.0875185546874,900.557L1569.8035185546873,859.5825L1402.1575185546876,822.3191L1324.5875185546874,865.9663L1321.0745185546875,867.7478L1203.3145185546875,924.905L1203.1745185546874,925.053ZM1132.6305185546876,959.496L1180.9715185546875,904.863L1321.0745185546875,836.8682L1424.7825185546876,778.375C1546.4765185546876,805.3947000000001,1666.7655185546873,833.0082,1788.0395185546874,861.8094C1813.1935185546874,886.899,1838.3465185546875,911.989,1863.5005185546875,937.079C1849.0265185546875,989.9300000000001,1834.5525185546876,1042.93,1820.0785185546874,1095.782C1777.6405185546873,1161.847,1735.0615185546876,1227.911,1692.4825185546874,1293.976L1528.7705185546874,1474.058L1366.0425185546874,1501.671L1306.8815185546875,1480.442L1096.5155185546876,1441.842C1064.3356185546875,1394.335,1032.2959185546874,1346.679,999.9752185546874,1299.172C992.8084185546875,1270.074,985.0795185546875,1240.976,978.1938385546875,1211.878L978.1938385546875,1212.026L973.5565185546875,1175.208L1049.8615185546876,1064.754L1051.2668185546875,1062.824L1130.9445185546874,961.5740000000001L1132.6305185546876,959.496Z" fill="#010B1B" fill-opacity="1"/><path d="M886.2902963867188,936.0392702636718L851.4402963867187,1040.852270263672L856.4992963867187,1094.2972702636719L818.1357963867188,1237.1152702636718L803.8022963867188,1354.844270263672L934.6312963867188,1478.658270263672L1028.2202963867187,1489.9382702636717L1085.5542963867188,1549.0282702636719L1182.2362963867188,1595.4982702636719L1402.5792963867189,1595.3482702636718L1532.0022963867186,1587.6282702636718L1655.2432963867186,1557.638270263672L1726.2072963867188,1483.118270263672L1856.1912963867187,1394.4832702636718C1896.1012963867188,1292.045270263672,1932.5012963867186,1195.9922702636718,1969.0312963867189,1092.516270263672L2035.2212963867187,838.3522702636719L1955.8212963867188,672.8202702636719L1759.9312963867187,530.1498702636719L1507.8322963867188,516.9369702636719L1414.9452963867188,536.3851702636719L1183.5002963867187,539.2059702636718L988.7332963867187,699.5422702636719L917.6272963867187,862.5512702636719L886.2902963867188,935.8902702636719L886.2902963867188,936.0392702636718ZM793.5439963867187,1064.457270263672L829.6588963867188,955.9322702636719L830.2209963867188,954.2992702636718C866.4762963867188,869.380270263672,903.4342963867188,784.9072702636719,940.3922963867187,700.2852702636719L1190.5272963867187,494.37107026367187L1447.5472963867187,491.2534702636719L1541.5582963867187,471.5082702636719C1630.3702963867188,476.1105202636719,1719.1812963867187,480.8612402636719,1807.9912963867187,485.46347026367187C1875.7312963867187,534.7521702636718,1943.6012963867188,584.0412702636719,2011.3312963867188,633.4782702636719C2039.1612963867187,691.5252702636719,2066.981296386719,749.4252702636718,2094.6612963867187,807.4732702636718C2071.7612963867186,895.8062702636719,2048.851296386719,984.1402702636718,2025.6712963867187,1072.3252702636719L1979.4312963867187,1203.415270263672C1952.4512963867187,1263.987270263672,1928.1412963867188,1335.0992702636718,1903.6912963867187,1397.897270263672L1756.4212963867187,1498.408270263672L1667.1872963867188,1592.0782702636718L1502.7732963867188,1632.0182702636719C1457.2432963867186,1634.688270263672,1410.8702963867188,1638.398270263672,1365.4802963867187,1640.188270263672L1136.9872963867188,1640.3282702636718C1102.4172963867188,1623.708270263672,1067.8482963867186,1607.228270263672,1033.2792963867187,1590.5982702636718L978.1932963867188,1533.738270263672L884.7442963867188,1522.458270263672C838.0903963867188,1478.218270263672,791.4360963867188,1433.973270263672,744.6412963867188,1389.881270263672L760.2395963867187,1261.611270263672L797.9001963867188,1121.1682702636717L792.8412963867188,1066.832270263672L793.8249963867188,1063.863270263672L793.5439963867187,1064.457270263672Z" fill="#010B1B" fill-opacity="1"/><path d="M21.6408,1032.8355556640624L155.842,996.7595556640625L242.546,940.3445556640625L423.542,817.4201556640625L432.395,814.5994156640625C432.536,814.5994156640625,472.023,802.5741756640625,494.086,821.2801556640625C510.105,834.7899556640625,554.23,854.0897556640625,554.371,854.0897556640625L656.532,907.2383556640625L852.143,914.0675556640625L1010.8,1025.1155556640624L1211.18,1053.9165556640626L1168.04,1098.7515556640624L961.893,1069.0595556640624L804.365,958.7535556640626L610.3,951.9245556640625L504.906,897.1430556640626C502.236,895.9554556640625,457.69,876.3587556640625,440.405,861.6611556640624C433.519,855.8712556640625,425.65,854.9804556640624,420.45,855.2774556640625C330.655,916.2945556640625,242.405,975.6785556640625,151.626,1034.7655556640625L0,1075.5915556640625L21.3598,1032.8355556640624L21.6408,1032.8355556640624Z" fill="#010B1B" fill-opacity="1"/><path d="M1807.71246875,1083.0142875976562C1807.99346875,1083.0142875976562,1915.63596875,1062.2302875976561,2005.29096875,1088.6552875976563C2063.60796875,1076.6302875976562,2567.8119687500002,968.8482875976563,2677.5619687500002,815.6382875976562C2759.06596875,701.9178875976562,2770.30796875,676.2343875976562,2772.27596875,671.7805875976562C2772.97796875,670.1474875976562,2773.39996875,669.1082875976563,2774.5239687499998,667.4752875976562L2775.78896875,665.5452875976563C2806.42796875,622.7888275976562,2813.72796875,623.0857475976562,2820.0579687500003,638.0801875976563C2828.62796875,637.1894275976563,2831.85796875,642.2370875976562,2821.5979687500003,657.6768875976562C2817.9479687499997,665.6936875976562,2801.36796875,698.9486875976562,2721.2649687499998,810.7392875976562C2578.63196875,1009.6752875976563,1977.46696875,1129.1852875976563,1975.63996875,1129.4822875976563L1969.87796875,1130.6702875976562L1966.22496875,1129.4822875976563C1882.89296875,1103.5022875976563,1782.69901875,1122.8012875976563,1782.41796875,1122.8012875976563L1807.57196875,1083.0142875976562L1807.71246875,1083.0142875976562Z" fill="#010B1B" fill-opacity="1"/><path d="M2433.190646484375,77.94144439697266L2397.778646484375,136.43464439697266C2391.1736464843752,153.80444439697266,2342.692646484375,277.32344439697266,2277.348646484375,329.58044439697267C2268.9166464843747,353.7794443969727,2243.4816464843752,411.67944439697266,2181.088646484375,455.32644439697265C2144.271646484375,498.37944439697264,1915.215646484375,767.2404443969726,1893.996646484375,811.4814443969726L1892.1696464843749,815.3414443969726L1888.5156464843749,819.4984443969727C1888.234646484375,819.7954443969727,1783.824646484375,939.8994443969726,1590.462646484375,950.8854443969726L1622.2212464843751,910.2074443969726C1759.935646484375,902.3394443969727,1832.446646484375,835.8284443969726,1847.342646484375,820.6864443969727C1885.424646484375,753.7304443969726,2145.957646484375,449.83344439697265,2146.660646484375,448.94244439697263L2152.140646484375,442.5584443969727L2160.2916464843747,437.36244439697265C2213.971646484375,402.92044439697264,2229.007646484375,339.52744439697267,2229.007646484375,339.37944439697264L2232.801646484375,324.38444439697264L2255.426646484375,313.2504443969726C2295.475646484375,293.65344439697265,2347.610646484375,152.46824439697264,2347.7516464843748,152.02294439697266L2348.453646484375,149.94444439697264L2386.395646484375,87.44287439697266L2433.190646484375,78.23836439697266L2433.190646484375,77.94144439697266Z" fill="#010B1B" fill-opacity="1"/><path d="M575.168407421875,0C575.590007421875,0.445379,715.1316074218751,154.844,724.686607421875,285.785L724.686607421875,286.527L724.546607421875,287.418C724.546607421875,287.864,705.856607421875,453.099,915.519607421875,466.906L920.578607421875,467.203L1032.858607421875,647.582L982.269607421875,681.282L873.783607421875,507.139C660.888607421875,490.363,670.865607421875,326.315,671.989607421875,312.805C662.293607421875,187.059,525.844182421875,35.9273,525.422607421875,35.4819L575.0279074218749,0.14846L575.168407421875,0Z" fill="#010B1B" fill-opacity="1"/><path d="M1225.94012109375,161.52422293945313L1224.53482109375,289.94176293945316L1220.03802109375,339.23076293945314L1239.71162109375,412.4217629394531L1262.47662109375,483.6817629394531C1262.61662109375,484.12776293945313,1276.24762109375,515.4527629394531,1263.88162109375,600.3717629394531C1263.31962109375,607.051762939453,1256.99562109375,704.7387629394532,1317.28162109375,758.7777629394532L1317.9836210937501,759.3717629394531L1318.26462109375,760.1137629394532C1318.40562109375,760.4107629394531,1354.8016210937499,858.5427629394532,1363.37362109375,917.0367629394531L1380.93862109375,884.0777629394531L1360.84362109375,964.6917629394532L1357.33062109375,978.6467629394531C1356.48762109375,1001.3617629394531,1373.21062109375,1058.0727629394532,1520.3396210937499,1148.187762939453C1520.62062109375,1148.3367629394531,1599.87662109375,1182.6357629394531,1620.81562109375,1200.5957629394532C1622.64162109375,1201.6357629394531,1641.47262109375,1211.1357629394531,1704.98962109375,1197.475762939453L1706.81662109375,1197.0357629394532L1708.36262109375,1197.0357629394532C1708.92462109375,1197.0357629394532,1900.88162109375,1204.455762939453,1955.82662109375,1215.435762939453C1978.02962109375,1214.405762939453,2313.03662109375,1199.405762939453,2492.48662109375,1246.915762939453L2469.30662109375,1269.0357629394532C2286.48662109375,1220.6357629394531,1937.8396210937499,1238.0057629394532,1936.85562109375,1238.155762939453L1935.59062109375,1238.155762939453L1934.4666210937498,1237.8557629394531C1885.42362109375,1227.7657629394532,1708.50262109375,1220.3357629394532,1690.09362109375,1219.745762939453Q1616.17762109375,1235.185762939453,1594.81762109375,1221.5257629394532L1594.25562109375,1221.0857629394532C1575.28462109375,1204.455762939453,1496.59062109375,1170.155762939453,1495.32662109375,1169.7157629394533L1494.76462109375,1169.415762939453C1403.70362109375,1113.745762939453,1361.82762109375,1068.762762939453,1343.13762109375,1035.9527629394531C1149.35402109375,1843.1257629394531,1139.09566609375,1861.3857629394531,1180.55052109375,1662.6057629394531C1113.80122109375,1913.3457629394532,1102.55922109375,1931.3157629394532,1334.98762109375,961.4257629394531C1343.41862109375,925.9437629394531,1293.39162109375,788.7667629394531,1289.45762109375,778.2267629394531C1225.23742109375,719.8817629394531,1234.51212109375,614.0297629394531,1234.51212109375,613.7327629394531L1234.51212109375,613.4357629394531C1246.59762109375,530.5957629394532,1233.52842109375,501.4967629394531,1233.52842109375,501.34876293945314C1229.73422109375,489.62076293945313,1214.41702109375,435.7297629394531,1210.48232109375,429.1977629394531L1190.38722109375,354.5217629394531L1195.02462109375,303.45176293945315L1196.42982109375,175.92486293945313L1225.65902109375,161.37576293945312L1225.94012109375,161.52422293945313Z" fill="#010B1B" fill-opacity="1"/><path d="M1323.0420849609375,1028.2328935546875L1292.9699849609374,1061.7847935546874L1241.9593849609375,1218.1128935546876L1268.7996849609376,1257.1578935546875L1360.2810849609375,1269.9258935546875L1458.0870849609375,1219.5978935546875L1496.4500849609376,1163.4798935546876L1514.7180849609376,1111.3698935546875L1481.6950849609375,1044.4149935546875L1413.2590849609376,1021.2552935546875L1323.0420849609375,1028.2328935546875ZM1269.0806849609376,1063.7147935546875L1319.5290849609376,1007.3000235546875C1357.7520849609375,1004.3308235546875,1396.1150849609376,1001.3616335546875,1434.3380849609375,998.5408935546875C1459.2110849609376,1006.8546435546875,1483.9430849609375,1015.3168935546875,1508.8160849609376,1023.7790935546875L1544.7910849609375,1096.5243935546875L1523.7120849609375,1156.7988935546875L1474.8090849609375,1228.5048935546874L1347.7750849609374,1293.8278935546875L1242.9430849609375,1279.1298935546874L1211.8870849609375,1233.8498935546875L1266.2701849609375,1066.8323935546875L1269.0806849609376,1063.5662935546875L1269.0806849609376,1063.7147935546875Z" fill="#010B1B" fill-opacity="1"/><path d="M1202.050665234375,1065.64504203125C1202.612765234375,1065.94196103125,1424.782365234375,1156.20558203125,1514.859365234375,1236.22558203125C1527.366365234375,1239.49158203125,1645.406365234375,1270.96458203125,1683.4893652343749,1284.32658203125L1659.4593652343751,1306.14958203125C1619.690365234375,1292.19458203125,1491.110365234375,1258.19758203125,1490.689365234375,1258.04858203125L1489.564365234375,1257.75158203125L1488.721365234375,1257.00958203125C1400.190365234375,1177.73258203125,1178.161465234375,1087.46868203125,1177.599365234375,1087.17168203125L1202.191265234375,1065.49658203125L1202.050665234375,1065.64504203125Z" fill="#010B1B" fill-opacity="1"/><path d="M1429.140732421875,1026.1542515625Q1402.860732421875,1022.4427515625,1294.656732421875,1388.0993515625L1289.8787324218752,1404.4303515625L1271.329732421875,1404.8753515624999C1271.188732421875,1404.8753515624999,1227.063732421875,1405.3203515625,1152.304732421875,1457.2813515625L1032.155732421875,1549.7723515625L1026.815732421875,1551.4053515625C1025.270732421875,1551.8503515625,483.687732421875,1720.3523515625,368.175832421875,1829.3223515625L350.750732421875,1824.2743515625C471.180732421875,1710.7023515625,973.135732421875,1550.2173515625,1030.469732421875,1532.2533515625L1141.203732421875,1447.0383515624999L1142.608732421875,1445.9983515625C1201.909732421875,1404.5783515625,1246.737732421875,1390.1773515625,1270.4867324218749,1385.1303515625C1386.000732421875,999.8768415625,1447.970732421875,1003.7368013625,1448.250732421875,1003.7368013625L1429.280732421875,1026.3026515625L1429.140732421875,1026.1542515625Z" fill="#010B1B" fill-opacity="1"/><path d="M266.9978724609375,1327.0822841796876L503.7822724609375,1252.1099841796874L731.5732724609375,1237.1155841796874L977.4922724609376,1188.8661841796875C978.0542724609375,1188.7176841796875,1178.3022724609375,1147.2973841796875,1243.0842724609374,1163.6279641796875C1243.6462724609376,1163.7764241796874,1452.0442724609375,1206.6812841796875,1470.4542724609375,1294.8662841796875L1470.4542724609375,1295.1632841796875C1470.4542724609375,1295.6082841796874,1490.2642724609375,1456.2422841796874,1530.0342724609375,1446.2952841796875C1557.5742724609374,1439.4662841796876,1601.5642724609374,1492.3182841796875,1651.8742724609374,1552.8892841796874C1711.8742724609374,1625.0412841796874,1781.1542724609376,1708.3272841796875,1828.6542724609376,1709.9602841796875L1830.7542724609375,1709.9602841796875L1832.0242724609375,1710.8512841796874C1832.4442724609376,1711.1482841796874,1959.3442724609374,1803.1932841796875,1977.3242724609374,1838.5262841796875L2073.7242724609378,1839.7142841796876L2193.4542724609373,1901.6222841796875L2168.1542724609376,1923.0002841796875L2050.684272460938,1862.2802841796874L1950.4842724609375,1861.0922841796873L1949.5042724609375,1858.7172841796873C1937.8342724609374,1828.8762841796874,1819.5142724609375,1741.8792841796876,1806.5842724609374,1732.3772841796876C1753.8942724609376,1728.3692841796874,1684.3342724609374,1644.9342841796874,1624.0442724609375,1572.3382841796874C1575.9842724609375,1514.5872841796875,1533.9742724609375,1463.9622841796875,1518.3742724609374,1467.9702841796875C1463.2842724609375,1481.7772841796875,1442.2042724609375,1319.3622841796875,1441.0842724609374,1311.4942841796874C1423.6542724609376,1227.9110841796876,1220.8812724609375,1186.0453841796875,1220.3192724609376,1185.8969841796875L1220.0382724609376,1185.8969841796875C1159.8932724609376,1170.6055841796874,964.5632724609375,1210.9866841796875,964.0012724609375,1210.9866841796875C957.8182724609375,1209.9473841796876,741.4102724609374,1254.6338841796876,715.4132724609375,1259.6814841796875L490.0112724609375,1274.5272841796875L258.0042724609375,1347.8662841796875L266.7168224609375,1327.0822841796876L266.9978724609375,1327.0822841796876Z" fill="#010B1B" fill-opacity="1"/><path d="M1776.6585559082032,571.5702515429688C1776.2385559082031,572.0156315429688,1626.7185559082031,716.0220815429687,1446.1385559082032,736.2120815429687C1445.578555908203,736.2120815429687,1260.0875559082033,755.8090815429688,1106.7745559082032,919.4120815429687L1104.5265559082031,921.9350815429688L1101.5755559082031,924.0140815429688C1101.2945559082032,924.1620815429687,998.2895559082032,993.7900815429688,954.4455559082031,1324.1130815429688C955.7105559082031,1335.2470815429688,972.9955559082031,1496.3260815429687,885.8695559082031,1431.1530815429687L885.4485559082032,1430.8560815429687C885.3075559082031,1430.7070815429688,852.5655559082031,1395.9680815429688,740.5665559082031,1500.6320815429688L733.4005559082032,1507.3120815429688L725.3905559082032,1508.9460815429688C725.1095559082031,1508.9460815429688,642.1995559082031,1524.0880815429687,461.90555590820316,1748.4110815429688L454.59855590820314,1757.4710815429687L443.91855590820313,1759.6910815429687C443.6375559082031,1759.6910815429687,344.98915590820314,1779.7410815429687,330.5151559082031,1825.6110815429688L301.9885559082031,1836.3010815429689C320.6783559082031,1776.9110815429688,414.12755590820314,1748.4110815429688,446.1675559082031,1740.3910815429688C603.9765559082032,1546.2090815429688,700.6575559082031,1499.8890815429686,729.4655559082031,1489.6460815429687C864.3695559082031,1366.1270815429689,910.3205559082031,1408.587081542969,912.5695559082031,1410.8130815429688C935.7555559082032,1427.4410815429687,925.3575559082032,1339.5530815429688,925.2165559082031,1339.2560815429688L925.0765559082031,1338.6620815429687L925.2165559082031,1338.0680815429687C966.1095559082031,1028.9750815429688,1068.2705559082033,931.7340815429687,1088.3665559082033,915.4030815429687C1258.260555908203,735.4700815429687,1461.7385559082031,713.9430815429687,1462.298555908203,713.9430815429687C1625.308555908203,695.6830815429687,1758.808555908203,567.1164605429688,1759.2285559082031,566.6710815429688L1776.798555908203,571.5702515429688L1776.6585559082032,571.5702515429688Z" fill="#010B1B" fill-opacity="1"/><path d="M1620.6736609375,922.084228515625C1620.8141609375,922.529607515625,1653.8374609375,1052.729228515625,1712.4359609375,1100.830228515625C1740.5409609375,1123.841228515625,1745.8809609375,1118.942228515625,1751.5019609375,1113.746228515625C1765.6949609375001,1100.533228515625,1780.5909609375,1086.726228515625,1806.1669609374999,1091.774228515625L1783.8229609375,1114.043228515625C1775.6729609375,1112.409228515625,1772.0189609375,1115.824228515625,1768.5059609375,1119.090228515625C1747.8489609375001,1138.242228515625,1728.4559609375,1156.354228515625,1685.5961609375,1121.169228515625C1625.3109609375,1071.732228515625,1591.7254859375,939.305528515625,1591.5849609375,938.860228515625L1620.5330609375,922.084228515625L1620.6736609375,922.084228515625Z" fill="#010B1B" fill-opacity="1"/><path d="M1562.6363462890624,1169.4181767578125C1562.9174462890626,1169.4181767578125,1648.4969462890624,1160.9559767578126,1687.5629462890624,1111.5188567578125L1710.7499462890626,1110.3311767578125C1654.8209462890625,1181.1464767578125,1546.4759962890626,1191.8355767578125,1546.1949462890625,1191.8355767578125L1562.6363462890624,1169.4181767578125Z" fill="#010B1B" fill-opacity="1"/><path d="M1156.3797573242186,1217.816019921875L749.9820573242188,1404.578419921875L773.0281573242188,1465.298419921875L744.3610573242188,1482.965419921875L714.2887573242188,1403.836419921875L1158.3477573242187,1199.555419921875L1156.3797573242186,1217.816019921875Z" fill="#010B1B" fill-opacity="1"/><path d="M1242.3804829101564,891.3533842773437L1227.6254829101563,795.7453842773438C1217.0864829101563,788.4703842773438,1142.1864829101562,735.6183842773437,1148.0884829101562,694.9403842773438C1144.1534829101563,681.8763842773437,1098.7644829101562,538.6123842773437,994.7754829101563,500.60638427734375L990.2784829101563,498.97338427734377L993.5104829101563,492.88738427734376C993.6514829101562,492.5903842773438,1055.0604829101562,387.0353842773437,835.9824829101562,259.06268427734375L861.5579829101563,237.98138427734375C1057.4494829101563,352.2953842773437,1033.1384829101562,454.7323842773437,1023.0214829101562,480.26738427734375C1132.6304829101564,523.6183842773437,1177.0364829101563,678.1643842773437,1177.1774829101562,678.6103842773438L1177.4574829101562,679.6493842773438L1177.1774829101562,680.8373842773437C1169.8694829101562,718.8423842773437,1254.4654829101562,775.4063842773437,1254.7464829101564,775.5543842773437L1256.0114829101562,776.4453842773438L1271.1884829101564,875.1713842773438L1242.0994829101562,891.2043842773437L1242.3804829101564,891.3533842773437Z" fill="#010B1B" fill-opacity="1"/><path d="M1178.5839614257811,924.9045302734376C1178.3029614257812,924.6075302734375,1093.2849614257811,844.2915302734375,1094.1279614257812,805.5435302734375C1091.7389614257813,796.3385302734375,1058.2943614257813,672.0777302734375,982.9729614257812,654.1140302734375L1005.7379614257812,631.9935302734375C1088.9289614257812,651.7387302734375,1123.0759614257813,788.9155302734375,1123.0759614257813,789.2125302734376L1123.2169614257812,789.8065302734375L1123.2169614257812,790.5485302734376C1121.3899614257812,825.1395302734375,1205.4239614257813,904.5655302734375,1205.7049614257812,904.8625302734375L1178.5839614257811,924.9045302734376Z" fill="#010B1B" fill-opacity="1"/><path d="M1380.3767310546875,817.5682189941406C1380.3767310546875,817.2712189941406,1386.4193060546875,725.6712189941406,1456.5412060546876,635.4082189941406C1459.4923060546876,631.1022189941407,1527.0852060546874,534.7522189941407,1510.5032060546876,503.4272189941406L1538.8892060546875,485.0182189941406C1558.7032060546876,522.8755189941406,1481.2732060546875,632.1422189941406,1480.9922060546876,632.4392189941407L1480.2902060546876,633.3292189941407C1415.2269060546876,716.4672189941407,1409.4654060546875,803.3162189941406,1409.4654060546875,803.4642189941407L1380.2362060546875,817.4202189941407L1380.3767310546875,817.5682189941406Z" fill="#010B1B" fill-opacity="1"/></g></svg>