<svg xmlns="http://www.w3.org/2000/svg" xmlns:xlink="http://www.w3.org/1999/xlink" fill="none" version="1.1" width="11.004638671875" height="11.0048828125" viewBox="0 0 11.004638671875 11.0048828125"><g><path d="M0.25,0L10.7547,0C10.8938,0,11.0047,0.110938,11.0047,0.25L11.0047,10.7547C11.0047,10.8922,10.8938,11.0047,10.7547,11.0047L0.25,11.0047C0.1125,11.0047,0,10.8938,0,10.7547L0,0.25C0,0.1125,0.110938,0,0.25,0ZM2.88265,5.24888L2.51025,5.24888L2.51025,2.64472L1.62223,2.64472L1.62223,2.33222L3.77067,2.33222L3.77067,2.64472L2.88265,2.64472L2.88265,5.24888ZM4.30322,5.24888L3.93083,5.24888L4.92301,2.33222L5.33447,2.33222L6.33057,5.24888L5.93864,5.24888L5.65869,4.37519L4.58708,4.37519L4.30322,5.24888ZM6.7915,5.24888L6.39958,5.24888L7.25505,3.74107L6.45557,2.33222L6.86312,2.33222L7.26286,3.07701C7.33968,3.21242,7.39958,3.33612,7.49593,3.5067L7.51156,3.5067C7.59098,3.33612,7.64697,3.21242,7.71989,3.07701L8.11182,2.33222L8.49984,2.33222L7.69906,3.7619L8.55973,5.24888L8.15088,5.24888L7.71598,4.46112C7.63916,4.31399,7.55973,4.16685,7.46338,3.98847L7.44775,3.98847C7.36312,4.16685,7.2876,4.31399,7.21077,4.46112L6.7915,5.24888ZM9.43604,5.24888L9.06885,5.24888L9.06885,2.33222L9.43604,2.33222L9.43604,5.24888ZM4.82275,3.62909L4.67822,4.08222L5.56624,4.08222L5.42692,3.62909C5.31885,3.29576,5.2264,2.97414,5.13005,2.633L5.11442,2.633C5.02327,2.97805,4.92692,3.29576,4.82275,3.62909ZM9.65625,7.70156C9.79375,7.70156,9.90469,7.59062,9.90469,7.45312L9.90313,7.45312L9.90313,6.85C9.90313,6.7125,9.79219,6.60156,9.65469,6.60156L1.35,6.60156C1.2125,6.60156,1.10156,6.7125,1.10156,6.85L1.10156,7.45312C1.10156,7.59062,1.2125,7.70156,1.35,7.70156L9.65625,7.70156ZM9.65625,9.90312C9.79375,9.90312,9.90469,9.79219,9.90469,9.65469L9.90313,9.65469L9.90313,9.05156C9.90313,8.91406,9.79219,8.80312,9.65469,8.80312L1.35,8.80312C1.2125,8.80312,1.10156,8.91406,1.10156,9.05156L1.10156,9.65469C1.10156,9.79219,1.2125,9.90312,1.35,9.90312L9.65625,9.90312Z" fill-rule="evenodd" fill="#31A3FC" fill-opacity="1"/></g></svg>