<svg xmlns="http://www.w3.org/2000/svg" xmlns:xlink="http://www.w3.org/1999/xlink" fill="none" version="1.1" width="24" height="24" viewBox="0 0 24 24"><defs><clipPath id="master_svg0_477_7120"><rect x="0" y="0" width="24" height="24" rx="0"/></clipPath></defs><g clip-path="url(#master_svg0_477_7120)"><g><path d="M12.86553234577179,3.494813609375C12.480332345771789,2.829528609375,11.519832345771789,2.829528609375,11.13468234577179,3.494813609375L1.8691023457717895,19.498949609375C1.4831373457717896,20.165649609375,1.9641973457717896,20.999949609375,2.7345323457717896,20.999949609375L21.265632345771788,20.999949609375C22.03593234577179,20.999949609375,22.51703234577179,20.165649609375,22.13113234577179,19.498949609375L12.86553234577179,3.494813609375ZM12.003932345771789,15.917949609375Q12.26953234577179,15.917949609375,12.46093234577179,15.742149609375Q12.65623234577179,15.566449609375,12.691432345771789,15.296849609375L13.04293234577179,11.816409609375L13.07813234577179,10.714839609375Q13.08983234577179,10.433589609375,12.89063234577179,10.230469609375Q12.691432345771789,10.023439609375,12.410132345771789,10.023439609375L11.60156234577179,10.023439609375Q11.32031234577179,10.023439609375,11.121092345771789,10.230469609375Q10.92187234577179,10.433589609375,10.92187234577179,10.714839609375L10.95703234577179,11.816409609375L11.32031234577179,15.296849609375Q11.355472345771789,15.566449609375,11.54687234577179,15.742149609375Q11.74223234577179,15.917949609375,12.003932345771789,15.917949609375ZM12.000032345771789,19.105449609375Q12.539032345771789,19.105449609375,12.89063234577179,18.777349609375Q13.24223234577179,18.449249609375002,13.24223234577179,17.933549609375Q13.24223234577179,17.417949609375,12.88283234577179,17.078149609375Q12.52733234577179,16.738249609375,12.000032345771789,16.738249609375Q11.47265234577179,16.738249609375,11.11328234577179,17.078149609375Q10.75781234577179,17.417949609375,10.75781234577179,17.933549609375Q10.75781234577179,18.449249609375002,11.10937234577179,18.777349609375Q11.46094234577179,19.105449609375,12.000032345771789,19.105449609375Z" fill-rule="evenodd" fill="#E6A23C" fill-opacity="1"/></g></g></svg>