<svg xmlns="http://www.w3.org/2000/svg" xmlns:xlink="http://www.w3.org/1999/xlink" fill="none" version="1.1" width="13" height="14" viewBox="0 0 13 14"><defs><clipPath id="master_svg0_477_7113"><rect x="0" y="0" width="13" height="14" rx="0"/></clipPath></defs><g clip-path="url(#master_svg0_477_7113)"><g><rect x="0" y="0" width="13" height="14" rx="0" fill="#FFFFFF" fill-opacity="0.009999999776482582"/></g><g><path d="M2.12857304296875,6.8612826171875L5.2856090429687494,10.0928126171875L4.57029904296875,10.7916326171875L3.76873904296875,10.1937226171875L9.00753904296875,3.1705236171875Q9.06642904296875,3.0915766171875,9.139589042968751,3.0256346171875Q9.212749042968749,2.9596936171875,9.29735904296875,2.9092916171875Q9.38197904296875,2.8588896171875,9.47480904296875,2.8259646171875Q9.56762904296875,2.7930396171875,9.66509904296875,2.7788556171875Q9.76255904296875,2.7646726171875002,9.86091904296875,2.7697766171875Q9.95927904296875,2.7748796171875,10.05474904296875,2.7990746171875Q10.15022904296875,2.8232686171875,10.23914904296875,2.8656246171874997Q10.32805904296875,2.9079796171875,10.40700904296875,2.9668686171875Q10.48595904296875,3.0257576171875,10.55189904296875,3.0989166171875Q10.61783904296875,3.1720766171875,10.66823904296875,3.2566946171874998Q10.71864904296875,3.3413126171875,10.75156904296875,3.4341376171875Q10.78449904296875,3.5269626171875,10.79867904296875,3.6244266171875Q10.81285904296875,3.7218918171875,10.80775904296875,3.8202509171875Q10.80265904296875,3.9186096171875002,10.77845904296875,4.0140836171875Q10.75426904296875,4.1095566171875,10.71190904296875,4.1984756171875Q10.66955904296875,4.2873946171875,10.61066904296875,4.3663416171875L5.371869042968751,11.3895326171875Q5.32507904296875,11.4522526171875,5.26911904296875,11.5069326171875Q5.19866904296875,11.5757626171875,5.11613904296875,11.6295226171875Q5.03361904296875,11.683282617187501,4.942189042968749,11.7199026171875Q4.85075904296875,11.7565326171875,4.753939042968749,11.7746226171875Q4.65712904296875,11.7927126171875,4.55863904296875,11.7915626171875Q4.460159042968749,11.7904126171875,4.36378904296875,11.7700726171875Q4.267419042968751,11.749732617187501,4.17686904296875,11.7109826171875Q4.08631904296875,11.6722326171875,4.005079042968751,11.616562617187501Q3.92382904296875,11.5608926171875,3.85499904296875,11.490442617187501L0.69796504296875,8.2589126171875Q0.62913804296875,8.1884626171875,0.57537804296875,8.1059326171875Q0.52161804296875,8.0234126171875,0.48499004296875003,7.9319826171875Q0.44836304296874996,7.8405526171875,0.43027604296875,7.7437426171875Q0.41218904296875003,7.6469226171875,0.41333704296874996,7.5484426171875Q0.41448604296875,7.4499526171875,0.43482504296875,7.3535826171875005Q0.45516504296875004,7.2572126171875,0.49391404296874997,7.1666726171874995Q0.53266404296875,7.0761226171875,0.58833404296875,6.9948726171875Q0.64400404296875,6.9136226171874995,0.71445504296875,6.8447926171875Q0.78490604296875,6.7759726171875005,0.86743104296875,6.7222126171875Q0.94995704296875,6.6684426171875,1.04138404296875,6.6318226171875Q1.13281204296875,6.5951926171875,1.22962804296875,6.5771026171875Q1.32644434296875,6.5590226171875,1.42492904296875,6.560162617187499Q1.52341404296875,6.5613126171875,1.61978204296875,6.581652617187499Q1.71615004296875,6.6019926171875,1.80669904296875,6.640742617187501Q1.89724704296875,6.6794926171875,1.9784960429687501,6.7351626171875Q2.05974504296875,6.7908326171875,2.12857304296875,6.8612826171875ZM2.41326904296875,7.5601026171875Q2.41326904296875,7.6585926171875,2.39405404296875,7.7551926171875Q2.37483904296875,7.8517826171875,2.33714804296875,7.9427826171875Q2.2994570429687498,8.0337726171875,2.24473904296875,8.1156726171875Q2.19002004296875,8.1975626171875,2.12037604296875,8.2672026171875Q2.05073204296875,8.3368526171875,1.96883904296875,8.3915726171875Q1.88694704296875,8.4462826171875,1.79595204296875,8.4839826171875Q1.7049580429687499,8.5216726171875,1.60835904296875,8.5408826171875Q1.51176044296875,8.5601026171875,1.41326904296875,8.5601026171875Q1.31477764296875,8.5601026171875,1.21817904296875,8.5408826171875Q1.1215800429687501,8.5216726171875,1.03058604296875,8.4839826171875Q0.93959104296875,8.4462826171875,0.85769904296875,8.3915726171875Q0.77580604296875,8.3368526171875,0.70616204296875,8.2672026171875Q0.63651804296875,8.1975626171875,0.58179904296875,8.1156726171875Q0.52708104296875,8.0337726171875,0.48939004296875,7.9427826171875Q0.45169904296874996,7.8517826171875,0.43248404296875,7.7551926171875Q0.41326904296875,7.6585926171875,0.41326904296875,7.5601026171875Q0.41326904296875,7.4616026171875,0.43248404296875,7.365012617187499Q0.45169904296874996,7.2684126171875,0.48939004296875,7.1774126171875Q0.52708104296875,7.0864226171875,0.58179904296875,7.0045326171875Q0.63651804296875,6.9226326171874994,0.70616204296875,6.8529926171875Q0.77580604296875,6.7833526171875,0.85769904296875,6.7286326171875Q0.93959104296875,6.6739126171875,1.03058604296875,6.636222617187499Q1.1215800429687501,6.5985326171875,1.21817904296875,6.5793126171875Q1.31477764296875,6.5601026171875,1.41326904296875,6.5601026171875Q1.51176044296875,6.5601026171875,1.60835904296875,6.5793126171875Q1.7049580429687499,6.5985326171875,1.79595204296875,6.636222617187499Q1.88694704296875,6.6739126171875,1.96883904296875,6.7286326171875Q2.05073204296875,6.7833526171875,2.12037604296875,6.8529926171875Q2.19002004296875,6.9226326171874994,2.24473904296875,7.0045326171875Q2.2994570429687498,7.0864226171875,2.33714804296875,7.1774126171875Q2.37483904296875,7.2684126171875,2.39405404296875,7.365012617187499Q2.41326904296875,7.4616026171875,2.41326904296875,7.5601026171875ZM10.80909904296875,3.7684326171875Q10.80909904296875,3.8669240171875,10.78988904296875,3.9635226171875Q10.77066904296875,4.0601216171875,10.73297904296875,4.1511156171875Q10.69528904296875,4.2421106171875,10.64056904296875,4.3240026171875Q10.58584904296875,4.4058956171875,10.51620904296875,4.4755396171875Q10.44656904296875,4.5451836171875,10.36466904296875,4.5999026171875Q10.28277904296875,4.6546206171875,10.19178904296875,4.6923116171875Q10.10078904296875,4.7300026171875,10.00418904296875,4.7492176171875Q9.90758904296875,4.7684326171875,9.80909904296875,4.7684326171875Q9.71060904296875,4.7684326171875,9.61400904296875,4.7492176171875Q9.51740904296875,4.7300026171875,9.42641904296875,4.6923116171875Q9.33542904296875,4.6546206171875,9.25352904296875,4.5999026171875Q9.17163904296875,4.5451836171875,9.10199904296875,4.4755396171875Q9.03234904296875,4.4058956171875,8.97762904296875,4.3240026171875Q8.922909042968751,4.2421106171875,8.88521904296875,4.1511156171875Q8.84752904296875,4.0601216171875,8.82831904296875,3.9635226171875Q8.80909904296875,3.8669240171875,8.80909904296875,3.7684326171875Q8.80909904296875,3.6699412171875,8.82831904296875,3.5733426171875Q8.84752904296875,3.4767436171875,8.88521904296875,3.3857496171875Q8.922909042968751,3.2947546171875,8.97762904296875,3.2128626171875Q9.03234904296875,3.1309696171875,9.10199904296875,3.0613256171875Q9.17163904296875,2.9916816171875,9.25352904296875,2.9369626171875Q9.33542904296875,2.8822446171875002,9.42641904296875,2.8445536171875Q9.51740904296875,2.8068626171875,9.61400904296875,2.7876476171875Q9.71060904296875,2.7684326171875,9.80909904296875,2.7684326171875Q9.90758904296875,2.7684326171875,10.00418904296875,2.7876476171875Q10.10078904296875,2.8068626171875,10.19178904296875,2.8445536171875Q10.28277904296875,2.8822446171875002,10.36466904296875,2.9369626171875Q10.44656904296875,2.9916816171875,10.51620904296875,3.0613256171875Q10.58584904296875,3.1309696171875,10.64056904296875,3.2128626171875Q10.69528904296875,3.2947546171875,10.73297904296875,3.3857496171875Q10.77066904296875,3.4767436171875,10.78988904296875,3.5733426171875Q10.80909904296875,3.6699412171875,10.80909904296875,3.7684326171875Z" fill="#67C23A" fill-opacity="1"/></g></g></svg>