<svg xmlns="http://www.w3.org/2000/svg" xmlns:xlink="http://www.w3.org/1999/xlink" fill="none" version="1.1" width="22.367542266845703" height="22" viewBox="0 0 22.367542266845703 22"><defs><clipPath id="master_svg0_907_05797"><rect x="0" y="0" width="22.367542266845703" height="22" rx="0"/></clipPath></defs><g style="mix-blend-mode:passthrough" clip-path="url(#master_svg0_907_05797)"><g style="mix-blend-mode:passthrough"><path d="M11.18374921875,1.375C13.95074921875,1.4465,16.25534921875,2.38815,18.09744921875,4.19994C19.93954921875,6.01173,20.89684921875,8.27842,20.96954921875,11C20.89684921875,13.7216,19.93954921875,15.9882,18.09744921875,17.8001C16.25534921875,19.6119,13.95074921875,20.5535,11.18374921875,20.625C8.41669921875,20.5535,6.11214921875,19.6119,4.27007921875,17.8001C2.4280192187500003,15.9882,1.4706437187499999,13.7216,1.39794921875,11C1.4706437187499999,8.27842,2.4280192187500003,6.01173,4.27007921875,4.19994C6.11214921875,2.38815,8.41669921875,1.4465,11.18374921875,1.375C11.18374921875,1.375,11.18374921875,1.375,11.18374921875,1.375C11.18374921875,1.375,11.18374921875,1.375,11.18374921875,1.375ZM11.18374921875,5.5C10.80489921875,5.5,10.49174921875,5.63613,10.24430921875,5.90837C9.99686921875,6.18062,9.88758921875,6.50283,9.91648921875,6.875C9.91648921875,6.875,10.41905921875,12.375,10.41905921875,12.375C10.44841921875,12.5758,10.53205921875,12.7369,10.66999921875,12.8583C10.80792921875,12.9798,10.97894921875,13.0407,11.18304921875,13.0412C11.38714921875,13.0416,11.55814921875,12.9807,11.69614921875,12.8583C11.83404921875,12.7359,11.91764921875,12.5748,11.94704921875,12.375C11.94704921875,12.375,12.44964921875,6.875,12.44964921875,6.875C12.47894921875,6.50238,12.36964921875,6.18017,12.12174921875,5.90837C11.87384921875,5.63658,11.56074921875,5.50045,11.18234921875,5.5C11.18234921875,5.5,11.18374921875,5.5,11.18374921875,5.5C11.18374921875,5.5,11.18374921875,5.5,11.18374921875,5.5ZM11.18374921875,16.5C11.50434921875,16.485799999999998,11.77014921875,16.3783,11.98124921875,16.177599999999998C12.19234921875,15.9768,12.29794921875,15.719,12.29794921875,15.4041C12.29794921875,15.0892,12.19234921875,14.8278,11.98124921875,14.6197C11.77014921875,14.4116,11.50434921875,14.3078,11.18374921875,14.3083C10.86314921875,14.3087,10.59729921875,14.4125,10.38620921875,14.6197C10.17510921875,14.8269,10.06956921875,15.0883,10.06956921875,15.4041C10.06956921875,15.72,10.17510921875,15.9778,10.38620921875,16.177599999999998C10.59729921875,16.377299999999998,10.86314921875,16.4849,11.18374921875,16.5C11.18374921875,16.5,11.18374921875,16.5,11.18374921875,16.5C11.18374921875,16.5,11.18374921875,16.5,11.18374921875,16.5Z" fill="#E6A23C" fill-opacity="1"/></g></g></svg>