<?xml version="1.0" standalone="no"?><!DOCTYPE svg PUBLIC "-//W3C//DTD SVG 1.1//EN" "http://www.w3.org/Graphics/SVG/1.1/DTD/svg11.dtd"><svg t="1673426847677" class="icon" viewBox="0 0 1024 1024" version="1.1" xmlns="http://www.w3.org/2000/svg" p-id="3541" xmlns:xlink="http://www.w3.org/1999/xlink" width="200" height="200"><path d="M512 1024H135.4C60.7 1024 0 963.3 0 888.6V135.4C0 60.7 60.7 0 135.4 0h753.2C963.3 0 1024 60.7 1024 135.4V512c0 24.9-20.1 45-45 45s-45-20.1-45-45V135.4c0-25-20.4-45.4-45.4-45.4H135.4c-25 0-45.4 20.4-45.4 45.4v753.2c0 25 20.4 45.4 45.4 45.4H512c24.9 0 45 20.1 45 45s-20.1 45-45 45z" fill="#409eff" p-id="3542"></path><path d="M512 802c-77.5 0-150.3-30.2-205.1-84.9C252.2 662.3 222 589.5 222 512s30.2-150.3 84.9-205.1S434.5 222 512 222s150.3 30.2 205.1 84.9C771.8 361.7 802 434.5 802 512s-30.2 150.3-84.9 205.1C662.3 771.8 589.5 802 512 802z m0-490c-110.3 0-200 89.7-200 200s89.7 200 200 200 200-89.7 200-200-89.7-200-200-200z" fill="#409eff" p-id="3543"></path><path d="M978.5 1023.5c-11.5 0-23-4.4-31.8-13.2L653.2 716.8c-17.6-17.6-17.6-46.1 0-63.6 17.6-17.6 46.1-17.6 63.6 0l293.5 293.5c17.6 17.6 17.6 46.1 0 63.6-8.8 8.8-20.3 13.2-31.8 13.2z" fill="#409eff" p-id="3544"></path></svg>