<svg xmlns="http://www.w3.org/2000/svg" xmlns:xlink="http://www.w3.org/1999/xlink" fill="none" version="1.1" width="22" height="22" viewBox="0 0 22 22"><defs><linearGradient x1="0.5" y1="0" x2="0.5" y2="1" id="master_svg0_1_17344"><stop offset="0%" stop-color="#4FA4FF" stop-opacity="1"/><stop offset="100%" stop-color="#D6E7FF" stop-opacity="1"/></linearGradient><filter id="master_svg1_1_29566" filterUnits="objectBoundingBox" color-interpolation-filters="sRGB" x="-2" y="-1" width="13" height="13"><feFlood flood-opacity="0" result="BackgroundImageFix"/><feColorMatrix in="SourceAlpha" type="matrix" values="0 0 0 0 0 0 0 0 0 0 0 0 0 0 0 0 0 0 127 0"/><feOffset dy="1" dx="0"/><feGaussianBlur stdDeviation="0.5"/><feColorMatrix type="matrix" values="0 0 0 0 0.06666667014360428 0 0 0 0 0.37254902720451355 0 0 0 0 0.7019608020782471 0 0 0 0.5 0"/><feBlend mode="normal" in2="BackgroundImageFix" result="effect1_dropShadow"/><feBlend mode="normal" in="SourceGraphic" in2="effect1_dropShadow" result="shape"/></filter><linearGradient x1="0.5" y1="0" x2="0.5" y2="1" id="master_svg2_1_18221"><stop offset="0%" stop-color="#58A9FD" stop-opacity="1"/><stop offset="100%" stop-color="#1E74D6" stop-opacity="1"/></linearGradient></defs><g><g><rect x="0" y="0" width="22" height="22" rx="3" fill="#D5E9FF" fill-opacity="0.6000000238418579"/></g><g><g><g><rect x="4" y="3" width="12.999999046325684" height="14.933334350585938" rx="1" fill="url(#master_svg0_1_17344)" fill-opacity="1"/></g><g><rect x="6" y="5.1328125" width="6.999999523162842" height="1.0666667222976685" rx="0.5333333611488342" fill="#FFFFFF" fill-opacity="1"/></g><g><rect x="6" y="8.333984375" width="6.999999523162842" height="1.0666667222976685" rx="0.5333333611488342" fill="#FFFFFF" fill-opacity="1"/></g><g><rect x="6" y="11.533203125" width="3" height="1.0666667222976685" rx="0.5333333611488342" fill="#FFFFFF" fill-opacity="1"/></g></g><g filter="url(#master_svg1_1_29566)"><g><ellipse cx="14.5" cy="13.5" rx="2.5" ry="2.5" fill="#FFFFFF" fill-opacity="1"/></g><g><path d="M13.5,10C11.01472,10.000000106267,9,12.01472,9,14.5C9,16.98528,11.01472,19,13.5,19C15.98528,19,18,16.98528,18,14.5C18,12.01472,15.98528,10,13.5,10ZM15.463709999999999,15.271429999999999L13.5,15.271429999999999C13.26331,15.271429999999999,13.07143,15.079550000000001,13.07143,14.84286L13.07143,12.23243C13.092369999999999,12.01246,13.27711,11.84447,13.49807,11.84447C13.71903,11.84447,13.903780000000001,12.01246,13.924710000000001,12.23243L13.924710000000001,14.418140000000001L15.46157,14.418140000000001C15.71317,14.39419,15.93076,14.59205,15.93076,14.84479C15.93076,15.09752,15.71317,15.29538,15.46157,15.271429999999999L15.463709999999999,15.271429999999999Z" fill="url(#master_svg2_1_18221)" fill-opacity="1"/></g></g></g></g></svg>