<svg xmlns="http://www.w3.org/2000/svg" xmlns:xlink="http://www.w3.org/1999/xlink" fill="none" version="1.1" width="22" height="22" viewBox="0 0 22 22"><defs><linearGradient x1="0.5" y1="0" x2="0.5" y2="1" id="master_svg0_1_17344"><stop offset="0%" stop-color="#4FA4FF" stop-opacity="1"/><stop offset="100%" stop-color="#D6E7FF" stop-opacity="1"/></linearGradient><filter id="master_svg1_1_29538" filterUnits="objectBoundingBox" color-interpolation-filters="sRGB" x="-2" y="-1" width="13" height="13"><feFlood flood-opacity="0" result="BackgroundImageFix"/><feColorMatrix in="SourceAlpha" type="matrix" values="0 0 0 0 0 0 0 0 0 0 0 0 0 0 0 0 0 0 127 0"/><feOffset dy="1" dx="0"/><feGaussianBlur stdDeviation="0.5"/><feColorMatrix type="matrix" values="0 0 0 0 0.0652654841542244 0 0 0 0 0.3727106750011444 0 0 0 0 0.7023809552192688 0 0 0 0.49000000953674316 0"/><feBlend mode="normal" in2="BackgroundImageFix" result="effect1_dropShadow"/><feBlend mode="normal" in="SourceGraphic" in2="effect1_dropShadow" result="shape"/></filter><linearGradient x1="0.5" y1="0" x2="0.5" y2="1" id="master_svg2_1_17350"><stop offset="0%" stop-color="#1C73D4" stop-opacity="1"/><stop offset="100%" stop-color="#5AABFF" stop-opacity="1"/></linearGradient></defs><g><g><rect x="0" y="0" width="22" height="22" rx="3" fill="#D5E9FF" fill-opacity="0.6000000238418579"/></g><g><g><rect x="4" y="3" width="12.999999046325684" height="14.933334350585938" rx="1" fill="url(#master_svg0_1_17344)" fill-opacity="1"/></g><g><rect x="6" y="5.13330078125" width="6.999999523162842" height="1.0666667222976685" rx="0.5333333611488342" fill="#FFFFFF" fill-opacity="1"/></g><g><rect x="6" y="8.333333492279053" width="6.999999523162842" height="1.0666667222976685" rx="0.5333333611488342" fill="#FFFFFF" fill-opacity="1"/></g><g><rect x="6" y="11.533333778381348" width="3" height="1.0666667222976685" rx="0.5333333611488342" fill="#FFFFFF" fill-opacity="1"/></g><g filter="url(#master_svg1_1_29538)"><g><ellipse cx="13.500000476837158" cy="14.178571701049805" rx="2.42307710647583" ry="2.25" fill="#FFFFFF" fill-opacity="1"/></g><g transform="matrix(1,0,0,-1,0,38)"><path d="M13.50065,28C13.280560000000001,27.99969,13.06085,27.98302,12.84358,27.950139999999998C12.50252,27.90158,12.22049,27.67596,12.116109999999999,27.36816C11.95063,26.86349,11.4506,26.52056,10.88667,26.52497C10.7925,26.52501,10.69861,26.53447,10.60659,26.55318C10.54468,26.56547,10.48146,26.57166,10.41797,26.57166C10.1451,26.57113,9.887434,26.45398,9.71829,26.25356C9.448997,25.92834,9.227968,25.5705,9.0612228,25.18978C8.9365758,24.88822,9.00556316,24.54658,9.239195,24.308410000000002C9.683178,23.84475,9.683178,23.1426,9.239195,22.67895C9.00550602,22.4408,8.9365122,22.09913,9.0612228,21.79757C9.224098,21.41509,9.445428,21.05676,9.71829,20.7338C9.893803,20.53232,10.15687,20.4155,10.4346,20.41569C10.49833,20.41562,10.5619,20.42182,10.62426,20.43417C10.71587,20.45332,10.80944,20.46302,10.9033,20.46311C11.46588,20.46226,11.96335,20.12107,12.13377,19.619198C12.23802,19.31136,12.52014,19.0857576,12.86125,19.0374542C13.07672,19.0123902,13.29365,18.999881656,13.51078,19.000000847487C13.732569999999999,19.0000625603,13.95416,19.0125694,14.17435,19.0374542C14.515460000000001,19.0857575,14.79757,19.31136,14.90182,19.619198C14.99587,19.908482,15.20581,20.1525,15.4877,20.30017C15.68405,20.40575,15.90638,20.46166,16.13282,20.46239C16.22651,20.4623,16.31991,20.4526,16.41134,20.43344C16.47369,20.42109,16.53726,20.41489,16.601,20.41496C16.87446,20.41154,17.133499999999998,20.52953,17.29938,20.73307C17.553240000000002,21.07069,17.767609999999998,21.43288,17.93878,21.81338C18.06349,22.11494,17.994500000000002,22.45661,17.76081,22.69475C17.31683,23.15841,17.31683,23.86056,17.76081,24.32422C17.99444,24.56239,18.06343,24.90403,17.93878,25.20559C17.77637,25.58828,17.555,25.94667,17.28171,26.26936C17.1094,26.46953,16.84991,26.58638,16.57528,26.58747C16.51411,26.58759,16.45312,26.581400000000002,16.39341,26.56899C16.30198,26.54984,16.20858,26.54013,16.11489,26.54005C15.55227,26.541159999999998,15.0548,26.88221,14.883890000000001,27.383969999999998C14.77957,27.6918,14.49751,27.917450000000002,14.15642,27.96595C13.94311,27.98395,13.71552,28,13.50065,28ZM13.41699,21.91991C12.41255,21.91991,11.5983,22.68211,11.5983,23.622329999999998C11.5983,24.56256,12.41255,25.32476,13.41699,25.32476C14.42143,25.32476,15.23568,24.56256,15.23568,23.622329999999998C15.23468,22.6825,14.421009999999999,21.92084,13.41699,21.91991ZM13.41699,24.59515C12.84303,24.59515,12.37774,24.1596,12.37774,23.622329999999998C12.37774,23.08506,12.84303,22.64952,13.41699,22.64952C13.99095,22.64952,14.456240000000001,23.08506,14.456240000000001,23.622329999999998C14.455390000000001,24.15927,13.9906,24.59434,13.41699,24.59515Z" fill="url(#master_svg2_1_17350)" fill-opacity="1"/></g></g></g></g></svg>