<svg xmlns="http://www.w3.org/2000/svg" xmlns:xlink="http://www.w3.org/1999/xlink" fill="none" version="1.1" width="22" height="22.5" viewBox="0 0 22 22.5"><defs><linearGradient x1="0.5" y1="0" x2="0.5" y2="1" id="master_svg0_1_17344"><stop offset="0%" stop-color="#4FA4FF" stop-opacity="1"/><stop offset="100%" stop-color="#D6E7FF" stop-opacity="1"/></linearGradient><filter id="master_svg1_282_24841" filterUnits="objectBoundingBox" color-interpolation-filters="sRGB" x="-2" y="-1" width="13" height="15.000001907348633"><feFlood flood-opacity="0" result="BackgroundImageFix"/><feColorMatrix in="SourceAlpha" type="matrix" values="0 0 0 0 0 0 0 0 0 0 0 0 0 0 0 0 0 0 127 0"/><feOffset dy="1" dx="0"/><feGaussianBlur stdDeviation="0.5"/><feColorMatrix type="matrix" values="0 0 0 0 0.06666667014360428 0 0 0 0 0.37254902720451355 0 0 0 0 0.7019608020782471 0 0 0 0.5 0"/><feBlend mode="normal" in2="BackgroundImageFix" result="effect1_dropShadow"/><feBlend mode="normal" in="SourceGraphic" in2="effect1_dropShadow" result="shape"/></filter><linearGradient x1="0.5" y1="0" x2="0.5" y2="1" id="master_svg2_1_17453"><stop offset="0%" stop-color="#74B6FA" stop-opacity="1"/><stop offset="100%" stop-color="#A0CCFF" stop-opacity="1"/></linearGradient><linearGradient x1="0.5" y1="0" x2="0.5" y2="1" id="master_svg3_1_17447"><stop offset="0%" stop-color="#74B6FA" stop-opacity="1"/><stop offset="100%" stop-color="#52A3FF" stop-opacity="1"/></linearGradient><linearGradient x1="0.2206122875213623" y1="0.21316637098789215" x2="0.7916647791862488" y2="0.7843775749206543" id="master_svg4_1_17450"><stop offset="2.857142873108387%" stop-color="#58AAFE" stop-opacity="1"/><stop offset="100%" stop-color="#1D74D5" stop-opacity="1"/></linearGradient></defs><g><g><g><rect x="0" y="0" width="22" height="22" rx="3" fill="#D5E9FF" fill-opacity="0.6000000238418579"/></g><g><g><rect x="4" y="3" width="12.999999046325684" height="14.933334350585938" rx="1" fill="url(#master_svg0_1_17344)" fill-opacity="1"/></g><g><rect x="6" y="5.1328125" width="6.999999523162842" height="1.0666667222976685" rx="0.5333333611488342" fill="#FFFFFF" fill-opacity="1"/></g><g><rect x="6" y="8.333984375" width="6.999999523162842" height="1.0666667222976685" rx="0.5333333611488342" fill="#FFFFFF" fill-opacity="1"/></g><g><rect x="6" y="11.533203125" width="3" height="1.0666667222976685" rx="0.5333333611488342" fill="#FFFFFF" fill-opacity="1"/></g></g><g filter="url(#master_svg1_282_24841)"><g><g transform="matrix(0.7363386750221252,0.6766131520271301,-0.7363386154174805,0.6766131520271301,12.22463013911829,-5.308349255098818)"><path d="M13.503174475585938,16.713713001556396C13.333146975585937,17.385363001556396,13.942598975585938,17.994823001556398,14.614249975585938,17.824803001556397L18.002169975585936,16.967203001556395C18.32773997558594,16.884783001556396,18.581949975585935,16.630573001556396,18.664369975585938,16.305013001556397L19.522009975585938,12.917053001556397C19.69203997558594,12.245394001556397,19.082569975585937,11.635935001556396,18.410919975585937,11.805969401556396L15.022989975585938,12.663649001556397C14.697439975585937,12.746066001556397,14.443231975585938,13.000273001556396,14.360816975585937,13.325833001556397L13.503174475585938,16.713713001556396Z" fill="url(#master_svg2_1_17453)" fill-opacity="1"/></g><g transform="matrix(0.7363386750221252,0.6766131520271301,-0.7363386154174805,0.6766131520271301,11.181082839651566,-5.807307677244715)"><path d="M13.554475001251221,15.278132628746032C13.38444750125122,15.949782628746032,13.99389950125122,16.559242628746034,14.665550501251222,16.389222628746033L18.05347050125122,15.531622628746032C18.37904050125122,15.449202628746033,18.63325050125122,15.194992628746032,18.71567050125122,14.869432628746033L19.57331050125122,11.481472628746033C19.74334050125122,10.809813628746033,19.13387050125122,10.200354628746032,18.46222050125122,10.370389028746033L15.074290501251221,11.228068628746033C14.74874050125122,11.310485628746033,14.494532501251221,11.564692628746032,14.41211750125122,11.890252628746033L13.554475001251221,15.278132628746032Z" fill="url(#master_svg3_1_17447)" fill-opacity="1"/></g><g transform="matrix(0.7363386750221252,0.6766131520271301,-0.7363386154174805,0.6766131520271301,10.193238471104877,-6.241151387113092)"><path d="M13.554475001251221,13.93657C13.38444750125122,14.60822,13.99389950125122,15.21768,14.665550501251222,15.04766L18.05347050125122,14.190059999999999C18.37904050125122,14.10764,18.63325050125122,13.85343,18.71567050125122,13.52787L19.57331050125122,10.13991C19.74334050125122,9.468251,19.13387050125122,8.858792,18.46222050125122,9.0288264L15.074290501251221,9.886506C14.74874050125122,9.968923,14.494532501251221,10.22313,14.41211750125122,10.54869L13.554475001251221,13.93657Z" fill="url(#master_svg4_1_17450)" fill-opacity="1"/></g></g></g></g></g></svg>