<svg xmlns="http://www.w3.org/2000/svg" xmlns:xlink="http://www.w3.org/1999/xlink" fill="none" version="1.1" width="16" height="16" viewBox="0 0 16 16"><defs><clipPath id="master_svg0_363_26141"><rect x="0" y="0" width="16" height="16" rx="0"/></clipPath></defs><g clip-path="url(#master_svg0_363_26141)"><g><path d="M4.57988,3.563319375C4.57988,3.865329375,4.82475,4.1101993750000005,5.12676,4.1101993750000005C5.42877,4.1101993750000005,5.67363,3.865329375,5.67363,3.563319375L5.67363,1.552734375C5.67363,1.250722375,5.42877,1.005859375,5.12676,1.005859375C4.82475,1.005859375,4.57988,1.250722375,4.57988,1.552734375L4.57988,3.563319375ZM10.3933,3.563319375C10.3933,3.865329375,10.63816,4.1101993750000005,10.94018,4.1101993750000005C11.2422,4.1101993750000005,11.4871,3.865329375,11.4871,3.563319375L11.4871,1.552734375C11.4871,1.250722375,11.2422,1.005859375,10.94018,1.005859375C10.63816,1.005859375,10.3933,1.250722375,10.3933,1.552734375L10.3933,3.563319375ZM3.9,3.649999375L3.9,1.750000375C3.9,1.727723375,3.90058,1.705583375,3.90173,1.683593375L3.70922,1.683593375C2.2129700000000003,1.683593375,1,2.896559375,1,4.392809375000001L1,5.899999375L15,5.899999375L15,4.392809375000001C15,2.896559375,13.787,1.683593375,12.2908,1.683593375L12.1983,1.683593375C12.1994,1.705583375,12.2,1.727723375,12.2,1.750000375L12.2,3.649999375C12.2,4.340359375,11.6404,4.899999375,10.95,4.899999375C10.25964,4.899999375,9.7,4.340359375,9.7,3.649999375L9.7,1.750000375C9.7,1.727723375,9.70058,1.705583375,9.70173,1.683593375L6.39827,1.683593375C6.39942,1.705583375,6.4,1.727723375,6.4,1.750000375L6.4,3.649999375C6.4,4.340359375,5.84036,4.899999375,5.15,4.899999375C4.45964,4.899999375,3.9,4.340359375,3.9,3.649999375ZM1,12.285359375L1,7.099999375L15,7.099999375L15,12.285359375C15,13.781559375,13.787,14.994559375,12.2908,14.994559375L3.70922,14.994559375C2.2129700000000003,14.994559375,1,13.781559375,1,12.285359375ZM7.48989,12.429059375C7.23942,12.429059375,6.99606,12.328559375,6.81874,12.151259375L5.23526,10.567789375C5.02171,10.354229375,5.02171,10.007919375,5.23526,9.794369375C5.44882,9.580809375,5.79513,9.580809375,6.00868,9.794369375L7.48388,11.269559375L10.03806,8.419799375C10.23958,8.194899375,10.58534,8.175889375,10.81024,8.377549375000001C11.0351,8.579079375,11.054,8.924839375000001,10.85249,9.149739375L8.19618,12.113559375C8.022960000000001,12.306759375,7.77495,12.421559375,7.5156,12.428659375C7.50712,12.428959375,7.49851,12.429059375,7.49003,12.429059375L7.48989,12.429059375Z" fill-rule="evenodd" fill="#8595B2" fill-opacity="1"/></g></g></svg>