<svg xmlns="http://www.w3.org/2000/svg" xmlns:xlink="http://www.w3.org/1999/xlink" fill="none" version="1.1" width="16" height="16" viewBox="0 0 16 16"><defs><clipPath id="master_svg0_363_25999"><rect x="0" y="0" width="16" height="16" rx="0"/></clipPath></defs><g clip-path="url(#master_svg0_363_25999)"><g><path d="M2.12821,12.3043C1.708075,11.8028,1.361574,11.2439,1.0991655,10.64463C0.902609,10.20185,1.00392757,9.68342,1.3527230000000001,9.34721C1.7119010000000001,8.9901,1.914965,8.505230000000001,1.9174630000000001,7.99875C1.91453,7.49283,1.7115,7.00864,1.3527230000000001,6.65193C1.00392783,6.31573,0.9026093,5.79729,1.0991655,5.35451C1.360046,4.7555,1.704875,4.196680000000001,2.1232699999999998,3.69486C2.43716,3.32794,2.92811,3.1645,3.39929,3.27007C3.93058,3.38255,4.48452,3.30383,4.96344,3.0478C5.42246,2.80584,5.77171,2.39769,5.9398,1.906792C6.09444,1.447143,6.50166,1.118927,6.98367,1.0654436999999999C7.65976,0.9781854,8.34426,0.9781854,9.02035,1.0654436999999999C9.49926,1.121937,9.9026,1.449615,10.05599,1.906792C10.22686,2.39969,10.5805,2.80814,11.0439,3.0478C11.5209,3.30227,12.0722,3.38095,12.6014,3.27007C13.0721,3.16553,13.562,3.32885,13.8758,3.69486C14.2988,4.19585,14.6481,4.75472,14.9131,5.35451C15.1096,5.79729,15.0083,6.31573,14.6595,6.65193C13.9065,7.39255,13.9065,8.60659,14.6595,9.34721C15.0083,9.68342,15.1096,10.20185,14.9131,10.64463C14.6507,11.2439,14.3042,11.8028,13.884,12.3043C13.5697,12.6706,13.0792,12.8339,12.608,12.7291C12.0767,12.6166,11.5228,12.6953,11.0439,12.9513C10.58018,13.1906,10.22642,13.5992,10.05599,14.0923C9.90185,14.551,9.49618,14.879,9.01542,14.9337C8.33936,15.0215,7.65478,15.0215,6.97873,14.9337C6.49858,14.8784,6.09369,14.5505,5.9398,14.0923C5.77335,13.602,5.42585,13.1939,4.96838,12.9513C4.488989999999999,12.6949,3.9344,12.6162,3.40258,12.7291C2.93195,12.8336,2.442,12.6703,2.12821,12.3043ZM5.17939,8.00049C5.17939,6.44239,6.44305,5.17947,8.00145,5.18008C9.55746,5.18189,10.8184,6.44283,10.82022,7.99884C10.82113,9.55694,9.55821,10.8206,7.99981,10.8209C6.44171,10.8209,5.17879,9.55798,5.17939,8.00049ZM8.00255,9.68483C8.933,9.68423,9.6867,8.92929,9.68579,7.99884C9.68398,7.06962,8.93067,6.31705,8.00145,6.31614C7.071,6.31614,6.3168,7.07059,6.31711,8.00104C6.31741,8.93149,7.0721,9.68544,8.00255,9.68483Z" fill-rule="evenodd" fill="#8595B2" fill-opacity="1"/></g></g></svg>