<svg xmlns="http://www.w3.org/2000/svg" xmlns:xlink="http://www.w3.org/1999/xlink" fill="none" version="1.1" width="16" height="16" viewBox="0 0 16 16"><defs><clipPath id="master_svg0_363_26021"><rect x="0" y="0" width="16" height="16" rx="0"/></clipPath></defs><g clip-path="url(#master_svg0_363_26021)"><g><path d="M2.2990193750000003,1C1.639795375,1,1.099609375,1.538198,1.099609375,2.19749L1.099609375,10.5844C1.099609375,11.2426,1.638671375,11.7819,2.2990193750000003,11.7819L7.399899375,11.7819L7.399899375,13.8013L3.907229375,13.8013C3.603389375,13.8011,3.340999375,14.0135,3.278319375,14.3103C3.217799375,14.6765,3.505229375,15.0076,3.876899375,14.9999L12.093109375,14.9999C12.396909375,15,12.659309375,14.7876,12.722009375,14.4908C12.782509375,14.1246,12.495109375,13.7935,12.123409375,13.8013L8.599319375,13.8013L8.599319375,11.7819L13.697909375,11.7819C14.358309375,11.7819,14.899609375,11.2437,14.899609375,10.5844L14.899609375,2.19749C14.899609375,1.5393189999999999,14.358309375,1.000000534651,13.697909375,1.000000534651L2.300149375,1.000000534651L2.2990193750000003,1ZM11.898809375,6.98969L9.918899375,6.98969L9.230469375,9.02812C9.169819375,9.20751,8.930619375,9.23779,8.810449375000001,9.08754L6.649709375,6.09157L6.380179375,6.78002C6.348729375,6.89999,6.229689375,6.95942,6.109519375,6.95942L3.828609375,6.95942C3.524359375,6.96011,3.261349375,6.74761,3.198579375,6.45037C3.138769375,6.08412,3.426699375,5.75358,3.798289375,5.76193L5.479489375,5.76193L6.169039375,4.024C6.229689375,3.8446,6.468899375,3.81545,6.589059375,3.96457L8.689159375,6.84057L8.989019375,5.94133C9.023319375,5.82014,9.132469375,5.73524,9.258549375,5.73165L11.839309375,5.73165C12.139209375,5.73165,12.408709375,5.94133,12.468209375,6.2407C12.558009375,6.69032,12.288509375,6.98969,11.898809375,6.98969Z" fill="#8595B2" fill-opacity="1"/></g></g></svg>