<svg xmlns="http://www.w3.org/2000/svg" xmlns:xlink="http://www.w3.org/1999/xlink" fill="none" version="1.1" width="16" height="16" viewBox="0 0 16 16"><defs><clipPath id="master_svg0_363_26011"><rect x="0" y="0" width="16" height="16" rx="0"/></clipPath></defs><g clip-path="url(#master_svg0_363_26011)"><g><path d="M7.9999459375,0.6005859375C9.8311759375,0.6005859375,10.7844859375,1.5050299375,10.8598759375,3.3126559375L10.8649959375,3.5529959375C10.8649959375,5.3138159375,10.1020859375,6.2878359375,8.5737259375,6.4750459375L8.5737259375,7.6894059375L12.0252859375,7.6894059375C12.3319859375,7.6894059375,12.5824859375,7.9373359375,12.5977859375,8.2497859375C12.6017859375,8.2693559375,12.6039859375,8.2892659375,12.6041859375,8.309235937499999L12.6028859375,9.4413759375L13.7133859375,9.4413759375C14.3689859375,9.4413759375,14.9005859375,9.9903659375,14.9005859375,10.6658859375L14.9005859375,14.1773859375C14.9005859375,14.8528859375,14.3689859375,15.4005859375,13.7133859375,15.4005859375L10.3142159375,15.4005859375C9.6573759375,15.4005859375,9.1257759375,14.8528859375,9.1257759375,14.1773859375L9.1257759375,10.6658859375C9.1257759375,9.9903659375,9.6573759375,9.4426359375,10.3142159375,9.4426359375L11.4566859375,9.4413759375L11.4566859375,8.8721359375L4.5534659375,8.8721359375L4.5534659375,9.4413759375L5.6869559375,9.4413759375C6.3437959375,9.4413759375,6.8753959375,9.9903659375,6.8753959375,10.6658859375L6.8753959375,14.1773859375C6.8753959375,14.8528859375,6.3437959375,15.4005859375,5.6869559375,15.4005859375L2.2877559375,15.4005859375C1.6321909374999999,15.4005859375,1.1005859375,14.8528859375,1.1005859375,14.1773859375L1.1005859375,10.6658859375C1.1005859375,9.9903659375,1.6321909374999999,9.4426359375,2.2877559375,9.4426359375L3.4059059375,9.4413759375L3.4059059375,8.309235937499999C3.4059059375,8.288995937500001,3.4084659375,8.2687559375,3.4122959375,8.2497859375C3.4217759375,7.9418159375,3.6735959375,7.6953259375,3.9847959375,7.6894059375L7.4274459375,7.6894059375L7.4274459375,6.4750459375C5.9706459375,6.2966859375,5.2090259375,5.4036259375,5.1400159375,3.7946059375L5.1361859375,3.5542559375C5.1361859375,1.6669459375,6.0128159375,0.6840724375,7.7673759375,0.6069102675L7.9999459375,0.6005859375Z" fill="#8595B2" fill-opacity="1"/></g></g></svg>