<svg xmlns="http://www.w3.org/2000/svg" xmlns:xlink="http://www.w3.org/1999/xlink" fill="none" version="1.1" width="16" height="16" viewBox="0 0 16 16"><defs><clipPath id="master_svg0_363_25403"><rect x="0" y="0" width="16" height="16" rx="0"/></clipPath></defs><g clip-path="url(#master_svg0_363_25403)"><g><path d="M6.38772,1.485419C6.93176,1.180689,7.43576,1,7.99934,1C8.5639,1,9.0679,1.180689,9.61292,1.486396C10.14036,1.782336,10.74399,2.21892,11.5039,2.76783L12.4865,3.47886C13.096,3.91935,13.5834,4.27194,13.9516,4.59718C14.3306,4.93414,14.6138,5.27013,14.7945,5.69108C14.9743,6.11497,15.0182,6.54863,14.9938,7.04869C14.9704,7.53021,14.8815,8.11232,14.7691,8.83801L14.564,10.17413C14.4058,11.2055,14.2798,12.026,14.0942,12.6657C13.9028,13.3279,13.6322,13.8524,13.1497,14.2538C12.6692,14.6543,12.0968,14.832,11.3974,14.917C10.71664,15,9.85808,15,8.773900000000001,15L7.22576,15C6.14158,15,5.28302,15,4.60321,14.917C3.90386,14.832,3.33051,14.6533,2.8499499999999998,14.2538C2.36744,13.8534,2.09786,13.3279,1.9054410000000002,12.6657C1.7198600000000002,12.026,1.59386,11.2055,1.436604,10.17413L1.230511,8.83801C1.119163,8.11232,1.0293023,7.53021,1.00586039,7.04772C0.9824185,6.54862,1.0253952,6.11497,1.206093,5.69206C1.3858139999999999,5.27013,1.6700460000000001,4.93414,2.04902,4.59816C2.41628,4.27194,2.90367,3.91935,3.51414,3.47886L4.495760000000001,2.76782C5.25567,2.21892,5.86027,1.7813590000000001,6.38772,1.486396L6.38772,1.485419ZM6.69734,11.2553C6.33754,11.2553,6.04586,11.547,6.04586,11.9068C6.04586,12.2666,6.33754,12.5583,6.69734,12.5583L9.30232,12.5583C9.66213,12.5583,9.95381,12.2666,9.95381,11.9068C9.95381,11.547,9.66213,11.2553,9.30232,11.2553L6.69734,11.2553Z" fill="#8595B2" fill-opacity="1"/></g></g></svg>