<svg xmlns="http://www.w3.org/2000/svg" xmlns:xlink="http://www.w3.org/1999/xlink" fill="none" version="1.1" width="75.1181640625" height="23" viewBox="0 0 75.1181640625 23"><g><g><path d="M7.627031796875,0.5C5.840161796875,0.5,4.102321796875,1.93425,3.740051796875,3.70614L0.572170196875,19.2912C0.21261579687499998,21.0631,1.367547796875,22.4973,3.154411796875,22.4973L20.279491796875,22.4973L21.227391796875,17.8353L13.507891796875,17.8353C11.720991796875,17.8353,10.566091796875,16.3983,10.925691796875,14.6292L12.197691796875,8.376249999999999C12.557291796875,6.60436,14.297791796875,5.17011,16.084691796875,5.17011L25.691791796875,5.17011L22.169891796875,22.5L31.572691796875,22.5L36.045291796875,0.50270368L7.627031796875,0.50270368L7.627031796875,0.5Z" fill="#289DDA" fill-opacity="1"/><path d="M7.494651796875,1.002704Q6.409451796875,1.047208,5.467501796875,1.8243Q4.466261796875,2.65031,4.229911796875,3.8063L1.0621507968750001,19.3908Q0.839211796875,20.4894,1.447799796875,21.2451Q2.053611796875,21.9973,3.154421796875,21.9973L19.870891796875,21.9973L20.615491796875,18.3353L13.507891796875,18.3353Q11.928791796875,18.3353,11.022391796875,17.2092Q10.119161796875,16.087,10.435671796875,14.5296L11.707791796875,8.27657Q12.012491796875,6.77458,13.287891796875,5.72296Q14.564691796875,4.67011,16.084691796875,4.67011L26.303691796875,4.67011L22.781691796875,22L31.164091796875,22L35.433391796875,1.002704L7.494651796875,1.002704ZM8.127031796875,0.002703999999999984L8.127031796875,0L7.627031796875,0Q6.107421796875,0,4.831131796875,1.052924Q3.557311796875,2.1037999999999997,3.250181796875,3.60598L0.082189796875,19.1916Q-0.234219203125,20.7508,0.668970796875,21.8723Q1.574991796875,22.9973,3.154421796875,22.9973L20.688091796875,22.9973L21.839291796875,17.3353L13.507891796875,17.3353Q12.407591796875,17.3353,11.801391796875,16.5822Q11.192691796875,15.8259,11.415691796875,14.7287L12.687691796875,8.47593Q12.922091796875,7.32069,13.924091796875,6.49449Q14.923791796875,5.67011,16.084691796875,5.67011L25.079991796875,5.67011L21.557991796875,23L31.981291796875,23L36.657191796875,0.002703999999999984L8.127031796875,0.002703999999999984Z" fill-rule="evenodd" fill="#FFFFFF" fill-opacity="1"/></g><g><path d="M59.81123857421875,7.16618C60.03453857421875,6.06145,61.12143857421875,5.1728,62.23543857421875,5.1728L73.55863857421875,5.1728L74.50653857421875,0.50269544L56.88303857421875,0.50269544C55.09613857421875,0.50269544,53.35833857421875,1.93965,52.99603857421875,3.70883L51.590538574218755,10.6208C51.230938574218754,12.3927,52.38593857421875,13.8297,54.172738574218755,13.8297L62.257238574218746,13.8297C63.37403857421875,13.8297,64.09593857421875,14.7264,63.86983857421875,15.8311C63.64373857421875,16.9386,62.55693857421875,17.8353,61.44013857421875,17.8353L48.23193857421875,17.8353L51.756638574218755,0.5L42.35383857421875,0.5L40.59148857421875,9.16495L36.16517157421875,9.16225L35.21453857421875,13.827L39.64357857421875,13.827L37.88122857421875,22.4973L66.80073857421876,22.4973C68.58753857421874,22.4973,70.32543857421875,21.0604,70.68763857421875,19.2912L72.09323857421876,12.3738C72.45273857421876,10.6019,71.29783857421876,9.16495,69.51093857421876,9.16495L61.42103857421875,9.16495C60.30693857421875,9.16765,59.585138574218746,8.27091,59.81123857421875,7.16618Z" fill="#289DDA" fill-opacity="1"/><path d="M69.51093857421876,8.66495L61.42103857421875,8.66495L61.41983857421875,8.66495Q60.824438574218746,8.6664,60.50303857421875,8.26726Q60.17863857421875,7.86449,60.30103857421875,7.26643Q60.43333857421875,6.61222,61.00653857421875,6.14169Q61.577838574218745,5.6728,62.23543857421875,5.6728L73.96733857421876,5.6728L75.11823857421875,0.002695000000000003L56.88303857421875,0.002695000000000003Q55.36393857421875,0.002695000000000003,54.08703857421875,1.056724Q52.81343857421875,2.10799,52.50623857421875,3.60853L51.100538574218746,10.5212Q50.78413857421875,12.0805,51.68713857421875,13.2031Q52.59333857421875,14.3297,54.172738574218755,14.3297L62.257238574218746,14.3297Q62.85543857421875,14.3297,63.17773857421875,14.7298Q63.502338574218754,15.1328,63.379938574218755,15.7309Q63.24573857421875,16.3885,62.67083857421875,16.8628Q62.09803857421875,17.3353,61.44013857421875,17.3353L48.84383857421875,17.3353L52.368538574218746,0L41.945298574218754,0L40.18298857421875,8.66471L35.75684157421875,8.66201L34.60236457421875,14.327L39.03171857421875,14.327L37.26936857421875,22.9973L66.80073857421876,22.9973Q68.31983857421875,22.9973,69.59673857421875,21.9433Q70.87023857421875,20.892,71.17753857421874,19.3915L72.58313857421875,12.4734Q72.89963857421876,10.9141,71.99653857421875,9.79152Q71.09033857421875,8.66495,69.51093857421876,8.66495ZM61.42103857421875,9.66495L61.42223857421875,9.66495L69.51093857421876,9.66495Q70.61133857421875,9.66495,71.21743857421875,10.41831Q71.82623857421875,11.1752,71.60323857421875,12.2742L70.19783857421875,19.1909Q69.96143857421875,20.3456,68.96013857421875,21.1721Q67.96043857421876,21.9973,66.80073857421876,21.9973L38.49307857421875,21.9973L40.25543857421875,13.327L35.82671257421875,13.327L36.57349857421875,9.6625L40.99997857421875,9.6652L42.76237857421875,1L51.14483857421875,1L47.62003857421875,18.3353L61.44013857421875,18.3353Q62.45723857421875,18.3353,63.307138574218754,17.6342Q64.15473857421875,16.935,64.35963857421875,15.9314Q64.57643857421874,14.8721,63.956538574218754,14.1025Q63.33403857421875,13.3297,62.257238574218746,13.3297L54.172738574218755,13.3297Q53.07233857421875,13.3297,52.46633857421875,12.5763Q51.85753857421875,11.8194,52.08053857421875,10.7204L53.48593857421875,3.80914Q53.72233857421875,2.65445,54.723638574218754,1.82792Q55.72333857421875,1.0026950000000001,56.88303857421875,1.0026950000000001L73.89493857421874,1.0026950000000001L73.14993857421875,4.6728L62.23543857421875,4.6728Q61.21993857421875,4.6728,60.37213857421875,5.36874Q59.523738574218754,6.06513,59.32133857421875,7.06593Q59.104638574218754,8.1251,59.72413857421875,8.89445Q60.34633857421875,9.66712,61.42103857421875,9.66495Z" fill-rule="evenodd" fill="#FFFFFF" fill-opacity="1"/></g></g></svg>