<svg xmlns="http://www.w3.org/2000/svg" xmlns:xlink="http://www.w3.org/1999/xlink" fill="none" version="1.1" width="379" height="64" viewBox="0 0 379 64"><defs><linearGradient x1="0" y1="0.5" x2="1" y2="0.5" id="master_svg0_1_9896"><stop offset="0%" stop-color="#FFFFFF" stop-opacity="1"/><stop offset="100%" stop-color="#FFFFFF" stop-opacity="1"/></linearGradient><mask id="master_svg1_293_04799/221_04073" style="mask-type:alpha" maskUnits="userSpaceOnUse"><g><rect x="0" y="0" width="379" height="64" rx="0" fill="url(#master_svg0_1_9896)" fill-opacity="1"/></g></mask><linearGradient x1="0.7959173321723938" y1="0.08820488303899765" x2="0.15454627573490143" y2="0.9456455707550049" id="master_svg2_1_02101"><stop offset="0%" stop-color="#72C4FF" stop-opacity="1"/><stop offset="100%" stop-color="#FFFFFF" stop-opacity="0"/></linearGradient><linearGradient x1="1" y1="0.5" x2="0" y2="0.5" id="master_svg3_104_3555"><stop offset="0%" stop-color="#60D2FF" stop-opacity="1"/><stop offset="99.28571581840515%" stop-color="#79D0FF" stop-opacity="0.25999999046325684"/></linearGradient><linearGradient x1="1" y1="0.5" x2="0" y2="0.5" id="master_svg4_102_03858"><stop offset="0%" stop-color="#FC7547" stop-opacity="0.5299999713897705"/><stop offset="100%" stop-color="#FFBE4E" stop-opacity="0.6700000166893005"/></linearGradient><linearGradient x1="1" y1="-0.28535887598991394" x2="0" y2="0.7165426015853882" id="master_svg5_1_03909"><stop offset="0%" stop-color="#72C4FF" stop-opacity="1"/><stop offset="100%" stop-color="#FFFFFF" stop-opacity="0"/></linearGradient><filter id="master_svg6_293_04799/221_04079" filterUnits="objectBoundingBox" color-interpolation-filters="sRGB" x="-4" y="-4" width="37" height="37"><feFlood flood-opacity="0" result="BackgroundImageFix"/><feBlend mode="normal" in="SourceGraphic" in2="BackgroundImageFix" result="shape"/><feGaussianBlur stdDeviation="1" result="effect1_foregroundBlur"/></filter><linearGradient x1="0.5" y1="0" x2="0.5" y2="1" id="master_svg7_104_4153"><stop offset="0%" stop-color="#5DFFAB" stop-opacity="0.36000001430511475"/><stop offset="100%" stop-color="#6DFFB9" stop-opacity="0"/></linearGradient><filter id="master_svg8_293_04799/221_04080" filterUnits="objectBoundingBox" color-interpolation-filters="sRGB" x="-4" y="-4" width="37" height="37"><feFlood flood-opacity="0" result="BackgroundImageFix"/><feBlend mode="normal" in="SourceGraphic" in2="BackgroundImageFix" result="shape"/><feGaussianBlur stdDeviation="1" result="effect1_foregroundBlur"/></filter><linearGradient x1="0.5" y1="0" x2="0.5" y2="1" id="master_svg9_1_03927"><stop offset="0%" stop-color="#72C4FF" stop-opacity="1"/><stop offset="100%" stop-color="#FFFFFF" stop-opacity="0"/></linearGradient><linearGradient x1="0.5" y1="0" x2="0.5" y2="1" id="master_svga_1_02841"><stop offset="0%" stop-color="#72C4FF" stop-opacity="1"/><stop offset="100%" stop-color="#FFFFFF" stop-opacity="0"/></linearGradient><linearGradient x1="0.5" y1="0" x2="0.5" y2="1" id="master_svgb_1_02841"><stop offset="0%" stop-color="#72C4FF" stop-opacity="1"/><stop offset="100%" stop-color="#FFFFFF" stop-opacity="0"/></linearGradient><linearGradient x1="0.5" y1="0" x2="0.5" y2="1" id="master_svgc_1_02841"><stop offset="0%" stop-color="#72C4FF" stop-opacity="1"/><stop offset="100%" stop-color="#FFFFFF" stop-opacity="0"/></linearGradient><linearGradient x1="0.5" y1="0" x2="0.5" y2="1" id="master_svgd_1_02841"><stop offset="0%" stop-color="#72C4FF" stop-opacity="1"/><stop offset="100%" stop-color="#FFFFFF" stop-opacity="0"/></linearGradient><linearGradient x1="0.5" y1="0" x2="0.5" y2="1" id="master_svge_1_02841"><stop offset="0%" stop-color="#72C4FF" stop-opacity="1"/><stop offset="100%" stop-color="#FFFFFF" stop-opacity="0"/></linearGradient><filter id="master_svgf_293_04799/221_04085" filterUnits="objectBoundingBox" color-interpolation-filters="sRGB" x="-2" y="-2" width="25" height="25"><feFlood flood-opacity="0" result="BackgroundImageFix"/><feBlend mode="normal" in="SourceGraphic" in2="BackgroundImageFix" result="shape"/><feGaussianBlur stdDeviation="0.5" result="effect1_foregroundBlur"/></filter><linearGradient x1="0.7959173321723938" y1="0.08820488303899765" x2="0.15454627573490143" y2="0.9456455707550049" id="master_svgg_1_02101"><stop offset="0%" stop-color="#72C4FF" stop-opacity="1"/><stop offset="100%" stop-color="#FFFFFF" stop-opacity="0"/></linearGradient><filter id="master_svgh_293_04799/221_05221" filterUnits="objectBoundingBox" color-interpolation-filters="sRGB" x="-2" y="-2" width="25" height="25"><feFlood flood-opacity="0" result="BackgroundImageFix"/><feBlend mode="normal" in="SourceGraphic" in2="BackgroundImageFix" result="shape"/><feGaussianBlur stdDeviation="0.5" result="effect1_foregroundBlur"/></filter><linearGradient x1="0.7959173321723938" y1="0.08820488303899765" x2="0.15454627573490143" y2="0.9456455707550049" id="master_svgi_1_02101"><stop offset="0%" stop-color="#72C4FF" stop-opacity="1"/><stop offset="100%" stop-color="#FFFFFF" stop-opacity="0"/></linearGradient><linearGradient x1="0.7959173321723938" y1="0.08820488303899765" x2="0.15454627573490143" y2="0.9456455707550049" id="master_svgj_1_02101"><stop offset="0%" stop-color="#72C4FF" stop-opacity="1"/><stop offset="100%" stop-color="#FFFFFF" stop-opacity="0"/></linearGradient><linearGradient x1="0.7959173321723938" y1="0.08820488303899765" x2="0.15454627573490143" y2="0.9456455707550049" id="master_svgk_104_3851"><stop offset="0%" stop-color="#7DFFF6" stop-opacity="0.3799999952316284"/><stop offset="100%" stop-color="#94FFE1" stop-opacity="0"/></linearGradient><linearGradient x1="0.7959173321723938" y1="0.08820488303899765" x2="0.15454627573490143" y2="0.9456455707550049" id="master_svgl_1_02101"><stop offset="0%" stop-color="#72C4FF" stop-opacity="1"/><stop offset="100%" stop-color="#FFFFFF" stop-opacity="0"/></linearGradient><linearGradient x1="0.7959173321723938" y1="0.08820488303899765" x2="0.15454627573490143" y2="0.9456455707550049" id="master_svgm_1_02101"><stop offset="0%" stop-color="#72C4FF" stop-opacity="1"/><stop offset="100%" stop-color="#FFFFFF" stop-opacity="0"/></linearGradient><linearGradient x1="0.7959173321723938" y1="0.08820488303899765" x2="0.15454627573490143" y2="0.9456455707550049" id="master_svgn_1_02101"><stop offset="0%" stop-color="#72C4FF" stop-opacity="1"/><stop offset="100%" stop-color="#FFFFFF" stop-opacity="0"/></linearGradient><linearGradient x1="0.7959173321723938" y1="0.08820488303899765" x2="0.15454627573490143" y2="0.9456455707550049" id="master_svgo_1_02101"><stop offset="0%" stop-color="#72C4FF" stop-opacity="1"/><stop offset="100%" stop-color="#FFFFFF" stop-opacity="0"/></linearGradient><linearGradient x1="0.7959173321723938" y1="0.08820488303899765" x2="0.15454627573490143" y2="0.9456455707550049" id="master_svgp_1_02101"><stop offset="0%" stop-color="#72C4FF" stop-opacity="1"/><stop offset="100%" stop-color="#FFFFFF" stop-opacity="0"/></linearGradient><linearGradient x1="0.7959173321723938" y1="0.08820488303899765" x2="0.15454627573490143" y2="0.9456455707550049" id="master_svgq_1_02101"><stop offset="0%" stop-color="#72C4FF" stop-opacity="1"/><stop offset="100%" stop-color="#FFFFFF" stop-opacity="0"/></linearGradient><linearGradient x1="0.5" y1="0" x2="0.5" y2="1" id="master_svgr_1_03207"><stop offset="0%" stop-color="#89E1FF" stop-opacity="1"/><stop offset="100%" stop-color="#79E9FF" stop-opacity="0.3700000047683716"/><stop offset="100%" stop-color="#6AC1FF" stop-opacity="0.3700000047683716"/></linearGradient><linearGradient x1="0.5" y1="0" x2="0.5" y2="1" id="master_svgs_1_02770"><stop offset="0%" stop-color="#AAFFFF" stop-opacity="1"/><stop offset="100%" stop-color="#6AE6FF" stop-opacity="0.3700000047683716"/><stop offset="100%" stop-color="#6AC1FF" stop-opacity="0.3700000047683716"/></linearGradient><linearGradient x1="0.5" y1="0" x2="0.5" y2="1" id="master_svgt_1_02770"><stop offset="0%" stop-color="#AAFFFF" stop-opacity="1"/><stop offset="100%" stop-color="#6AE6FF" stop-opacity="0.3700000047683716"/><stop offset="100%" stop-color="#6AC1FF" stop-opacity="0.3700000047683716"/></linearGradient><linearGradient x1="0.5" y1="0" x2="0.5" y2="1" id="master_svgu_1_02770"><stop offset="0%" stop-color="#AAFFFF" stop-opacity="1"/><stop offset="100%" stop-color="#6AE6FF" stop-opacity="0.3700000047683716"/><stop offset="100%" stop-color="#6AC1FF" stop-opacity="0.3700000047683716"/></linearGradient><linearGradient x1="0.5" y1="0" x2="0.5" y2="1" id="master_svgv_1_02770"><stop offset="0%" stop-color="#AAFFFF" stop-opacity="1"/><stop offset="100%" stop-color="#6AE6FF" stop-opacity="0.3700000047683716"/><stop offset="100%" stop-color="#6AC1FF" stop-opacity="0.3700000047683716"/></linearGradient></defs><g><g style="opacity:0.699999988079071;" mask="url(#master_svg1_293_04799/221_04073)"><g><ellipse cx="355.5" cy="58.5" rx="10.5" ry="10.5" fill="url(#master_svg2_1_02101)" fill-opacity="1"/></g><g><g><path d="M348.3293,56.3465L338.9922,65.5709C337.0635,67.4763,333.9365,67.4763,332.0078,65.5709L322.68198,56.3577Q322.66504,56.3409,322.64807,56.3242C319.10848,52.8273,319.118623,47.14773,322.67073,43.6385C326.22283,40.12926,331.9718,40.11924,335.5114,43.61612Q335.5284,43.63288,335.5452,43.6497C339.1001,40.173973,344.8236,40.175153,348.3519,43.66086C351.8802,47.14656,351.8814,52.801,348.3632,56.312799999999996L348.3293,56.3465Z" fill-rule="evenodd" fill="url(#master_svg3_104_3555)" fill-opacity="1"/></g><g style="opacity:0.30000001192092896;"><path d="" fill="url(#master_svg4_102_03858)" fill-opacity="1"/><path d="M340.3414,53.56338L345,53.56338Q345.0985,53.56338,345.1951,53.54416Q345.2917,53.52495,345.3827,53.48726Q345.4737,53.44957,345.5556,53.39485Q345.6375,53.34013,345.7071,53.27049Q345.7767,53.20084,345.8315,53.11895Q345.8862,53.03706,345.9239,52.94606Q345.9616,52.85507,345.9808,52.75847Q346,52.66187,346,52.56338Q346,52.46489,345.9808,52.36829Q345.9616,52.27169,345.9239,52.1807Q345.8862,52.0897,345.8315,52.00781Q345.7767,51.92592,345.7071,51.85627Q345.6375,51.78663,345.5556,51.73191Q345.4737,51.67719,345.3827,51.6395Q345.2917,51.60181,345.1951,51.58259Q345.0985,51.56338,345,51.56338L339.8309,51.56338Q339.7123,51.56338,339.5971,51.5911Q339.4818,51.61882,339.3762,51.67271Q339.2706,51.72661,339.1806,51.80371Q339.0905,51.8808,339.021,51.97681L336.8058,55.03533L333.33299,47.577844Q333.24902,47.397526,333.10244,47.263068Q332.95585,47.128609,332.76897,47.060482Q332.58209,46.99235,332.38336,47.00093Q332.18463,47.009505,332.00431,47.093477Q331.85451,47.16324,331.73511,47.277492Q331.61571,47.391744,331.53942,47.538335000000004L329.44459,51.56338L326,51.56338Q325.9015086,51.56338,325.80491,51.58259Q325.708311,51.60181,325.617317,51.6395Q325.526322,51.67719,325.44443,51.73191Q325.362537,51.78663,325.292893,51.85627Q325.223249,51.92592,325.16853,52.00781Q325.113812,52.0897,325.076121,52.1807Q325.03843,52.27169,325.019215,52.36829Q325,52.46489,325,52.56338Q325,52.66187,325.019215,52.75847Q325.03843,52.85507,325.076121,52.94606Q325.113812,53.03706,325.16853,53.11895Q325.223249,53.20084,325.292893,53.27049Q325.362537,53.34013,325.44443,53.39485Q325.526322,53.44957,325.617317,53.48726Q325.708311,53.52495,325.80491,53.54416Q325.9015086,53.56338,326,53.56338L326.000976562,53.56338L330.05147,53.56338Q330.18869,53.56338,330.32083,53.52642Q330.45298,53.48946,330.57028,53.41827Q330.68759,53.34708,330.78138,53.24692Q330.87518,53.14676,330.93853,53.02504L332.37665,50.2618L335.71112,57.42215Q335.82075,57.65757,336.0311,57.8099Q336.1108,57.867670000000004,336.2003,57.908770000000004Q336.2899,57.949870000000004,336.3857,57.97272Q336.4815,57.99556,336.5799,57.99928Q336.6783,58.003,336.7756,57.98745Q336.8728,57.9719,336.9652,57.93767Q337.0575,57.90344,337.1414,57.85185Q337.2253,57.80026,337.2975,57.7333Q337.3698,57.66634,337.4275,57.58657L340.3414,53.56338Z" fill-rule="evenodd" fill="#FFFFFF" fill-opacity="1"/></g></g><g style="opacity:0.30000001192092896;"><ellipse cx="28.5" cy="54.5" rx="21.5" ry="21.5" fill="url(#master_svg5_1_03909)" fill-opacity="1"/></g><g style="opacity:0.6000000238418579;" filter="url(#master_svg6_293_04799/221_04079)"><ellipse cx="73.5" cy="26.5" rx="14.5" ry="14.5" fill="url(#master_svg7_104_4153)" fill-opacity="1"/></g><g filter="url(#master_svg8_293_04799/221_04080)"><ellipse cx="124.5" cy="55.5" rx="14.5" ry="14.5" fill="url(#master_svg9_1_03927)" fill-opacity="0.6000000238418579"/></g><g><ellipse cx="222" cy="44" rx="6" ry="6" fill="url(#master_svga_1_02841)" fill-opacity="0.4000000059604645"/></g><g><ellipse cx="298" cy="41" rx="6" ry="6" fill="url(#master_svgb_1_02841)" fill-opacity="0.4000000059604645"/></g><g><ellipse cx="193" cy="62" rx="6" ry="6" fill="url(#master_svgc_1_02841)" fill-opacity="0.4000000059604645"/></g><g><ellipse cx="314" cy="63" rx="6" ry="6" fill="url(#master_svgd_1_02841)" fill-opacity="0.4000000059604645"/></g><g><ellipse cx="369" cy="43" rx="6" ry="6" fill="url(#master_svge_1_02841)" fill-opacity="0.4000000059604645"/></g><g style="opacity:0.30000001192092896;" filter="url(#master_svgf_293_04799/221_04085)"><ellipse cx="171.5" cy="47.5" rx="10.5" ry="10.5" fill="url(#master_svgg_1_02101)" fill-opacity="1"/></g><g style="opacity:0.4000000059604645;" filter="url(#master_svgh_293_04799/221_05221)"><ellipse cx="251.5" cy="45.5" rx="10.5" ry="10.5" fill="url(#master_svgi_1_02101)" fill-opacity="1"/></g><g style="opacity:0.30000001192092896;"><ellipse cx="54.5" cy="61.5" rx="10.5" ry="10.5" fill="url(#master_svgj_1_02101)" fill-opacity="1"/></g><g><ellipse cx="156.49998474121094" cy="41.5" rx="10.5" ry="10.5" fill="url(#master_svgk_104_3851)" fill-opacity="1"/></g><g><ellipse cx="62.5" cy="44.5" rx="5.5" ry="5.5" fill="url(#master_svgl_1_02101)" fill-opacity="1"/></g><g><ellipse cx="123.5" cy="16.5" rx="5.5" ry="5.5" fill="url(#master_svgm_1_02101)" fill-opacity="1"/></g><g><ellipse cx="246.5" cy="21.5" rx="5.5" ry="5.5" fill="url(#master_svgn_1_02101)" fill-opacity="1"/></g><g><ellipse cx="141.5" cy="61.5" rx="7.5" ry="7.5" fill="url(#master_svgo_1_02101)" fill-opacity="1"/></g><g><ellipse cx="269.5" cy="59.5" rx="7.5" ry="7.5" fill="url(#master_svgp_1_02101)" fill-opacity="1"/></g><g style="opacity:0.5;"><ellipse cx="116.5" cy="35.5" rx="7.5" ry="7.5" fill="url(#master_svgq_1_02101)" fill-opacity="1"/></g><g style="opacity:0.30000001192092896;"><path d="M96.53229999999999,50.46774L96.53229999999999,42L88.46773999999999,42L88.46773999999999,50.46774L80,50.46774L80,58.5323L88.46773999999999,58.5323L88.46773999999999,67L96.53229999999999,67L96.53229999999999,58.5323L105,58.5323L105,50.46774L96.53229999999999,50.46774Z" fill-rule="evenodd" fill="url(#master_svgr_1_03207)" fill-opacity="1"/></g><g><path d="M150.9032,19.09678L150.9032,13L145.09678,13L145.09678,19.09678L139,19.09678L139,24.9032L145.09678,24.9032L145.09678,31L150.9032,31L150.9032,24.9032L157,24.9032L157,19.09678L150.9032,19.09678Z" fill-rule="evenodd" fill="url(#master_svgs_1_02770)" fill-opacity="0.30000001192092896"/></g><g><path d="M310.9032,22.09678L310.9032,16L305.09678,16L305.09678,22.09678L299,22.09678L299,27.9032L305.09678,27.9032L305.09678,34L310.9032,34L310.9032,27.9032L317,27.9032L317,22.09678L310.9032,22.09678Z" fill-rule="evenodd" fill="url(#master_svgt_1_02770)" fill-opacity="0.30000001192092896"/></g><g><path d="M215.9032,56.09678L215.9032,50L210.09678,50L210.09678,56.09678L204,56.09678L204,61.9032L210.09678,61.9032L210.09678,68L215.9032,68L215.9032,61.9032L222,61.9032L222,56.09678L215.9032,56.09678Z" fill-rule="evenodd" fill="url(#master_svgu_1_02770)" fill-opacity="0.30000001192092896"/></g><g><path d="M283.91936,44.08065L283.91936,39L279.08065,39L279.08065,44.08065L274,44.08065L274,48.91936L279.08065,48.91936L279.08065,54L283.91936,54L283.91936,48.91936L289,48.91936L289,44.08065L283.91936,44.08065Z" fill-rule="evenodd" fill="url(#master_svgv_1_02770)" fill-opacity="0.30000001192092896"/></g></g><g><g><path d="M127.38,38.06Q129.7,37.14,130.58,35.43Q131.46,33.72,131.46,31.259999999999998L131.46,28.04L134.1,28.04L134.1,31.259999999999998Q134.1,32.22,134.02,33Q137.62,36,138.14,40.84L135.54,40.84Q135.18,37.92,133.3,35.92Q131.84,39.42,127.38,41.06L127.38,38.06ZM119.98,37.54Q121.32,36.480000000000004,122.2,35.34Q120.64,32.1,120.64,27.36L120.64,26.6L120.28,26.6L120.28,24.28L127.53999999999999,24.28L127.4,26.44Q127.26,29.22,126.69,31.439999999999998Q126.12,33.66,124.98,35.56Q125.82,36.58,127,37.480000000000004L127,40.58Q124.9,39.3,123.58,37.54Q122.1,39.28,119.98,40.879999999999995L119.98,37.54ZM122.88,26.6Q122.9,28.86,123.04,30.34Q123.18,31.82,123.6,33.06Q124.86,30.4,125,26.6L122.88,26.6ZM127.64,29.82Q128.94,26.740000000000002,129.26,22.960001L131.86,22.960001L131.82,23.38Q131.78,23.94,131.74,24.18L138.18,24.18Q137.88,27.08,136.98,29.82L134.28,29.82Q134.86,28.240000000000002,135.2,26.8L131.32,26.8Q130.96,28.46,130.38,29.82L127.64,29.82ZM150.9,23.3L157.78,23.3L157.78,36.54L154.14,36.54L154.14,34.04L155.34,34.04L155.34,25.82L153.42000000000002,25.82L153.42000000000002,37.74L150.9,37.74L150.9,23.3ZM139.6,28.7L144.42000000000002,28.7Q144.44,31.22,144.26,33.24Q144.07999999999998,35.26,143.64,37.26Q144.54,37.8,145.67000000000002,38.03Q146.8,38.260000000000005,148.4,38.260000000000005L158.2,38.260000000000005L158.2,40.8L148.4,40.8Q146.52,40.8,145.26,40.57Q144,40.34,143.02,39.82L142.66,41L139.9,41Q140.86,38.4,141.31,36.15Q141.76,33.9,141.86,31.3L139.6,31.3L139.6,28.7ZM143.12,23L144.5,27.34L141.8,27.34L140.42000000000002,23L143.12,23ZM144.78,34.4L145.66,34.22L145.66,23.24Q147.8,23.24,150.38,22.82L150.38,25.38Q149.18,25.58,148.24,25.66L148.24,33.7L150.42000000000002,33.26L150.42000000000002,35.92L144.78,37.08L144.78,34.4ZM178,41.06Q175.1,40.06,173.47,38.1Q171.84,36.14,171.4,33.16L170.3,33.16L170.3,41L167.72,41L167.72,33.16L166.6,33.16Q166.16,36.14,164.53,38.1Q162.9,40.06,160,41.06L160,38.36Q163.4,36.96,164.14,33.16L159.84,33.16L159.84,30.66L167.7,30.66L167.7,26.3L160.56,26.3L160.56,23.8L167.7,23.8L167.7,22.6L170.3,22.6L170.3,23.8L177.44,23.8L177.44,26.3L170.3,26.3L170.3,30.66L178.16,30.66L178.16,33.16L173.86,33.16Q174.6,36.96,178,38.36L178,41.06ZM164.22,26.86L165.28,30.04L162.72,30.04L161.66,26.86L164.22,26.86ZM173.78,26.86L176.34,26.86L175.28,30.04L172.72,30.04L173.78,26.86ZM192.57999999999998,38.6L195.26,38.6L195.26,23L197.76,23L197.76,41L192.57999999999998,41L192.57999999999998,38.6ZM179.86,38.260000000000005L184.01999999999998,38.260000000000005L184.01999999999998,36L180.57999999999998,36L180.57999999999998,33.480000000000004L184.01999999999998,33.480000000000004L184.01999999999998,31.560000000000002L180.12,31.560000000000002L180.12,29.14L181.14,29.14L182.82,25.82L180.48,25.82L180.48,23.34L190.42000000000002,23.34L190.42000000000002,25.82L185.56,25.82L183.86,29.14L187.28,29.14L186.44,26.94L189,26.94L190.8,31.560000000000002L186.62,31.560000000000002L186.62,33.480000000000004L190.12,33.480000000000004L190.12,36L186.62,36L186.62,38.260000000000005L190.82,38.260000000000005L190.82,40.82L179.86,40.82L179.86,38.260000000000005ZM191.62,24.1L193.95999999999998,24.1L193.95999999999998,36.8L191.62,36.8L191.62,24.1ZM208.8,41Q209.1,40.2,209.14,40.08L207.2,40.08Q207.14,37.6,206.26,35.14L208.42000000000002,35.14Q209.07999999999998,37.1,209.24,39.760000000000005Q209.72,38.260000000000005,209.91,36.72Q210.1,35.18,210.1,33.24L210.1,23.4Q214.16,23.4,217.82,22.880001L217.82,25.44Q215.51999999999998,25.78,212.62,25.92L212.62,28.3L218.2,28.3L218.2,30.86L216.8,30.86L216.8,41L214.28,41L214.28,30.86L212.62,30.86L212.62,33.24Q212.62,35.36,212.36,37.25Q212.1,39.14,211.54000000000002,41L208.8,41ZM199.62,40.760000000000005Q200.62,38,200.7,35.14L202.8,35.14Q202.66,38.379999999999995,201.86,40.760000000000005L199.62,40.760000000000005ZM199.88,28.64L201.62,28.64L201.2,26.240000000000002L200.24,26.240000000000002L200.24,24L203.28,24L203.28,23L205.84,23L205.84,24L209.07999999999998,24L209.07999999999998,26.240000000000002L208.14,26.240000000000002L207.72,28.64L209.44,28.64L209.44,30.880000000000003L205.94,30.880000000000003L205.94,32.24L209.2,32.24L209.2,34.480000000000004L205.88,34.480000000000004L205.88,41L203.44,41L203.44,34.480000000000004L200.12,34.480000000000004L200.12,32.24L203.38,32.24L203.38,30.880000000000003L199.88,30.880000000000003L199.88,28.64ZM203.9,28.64L205.44,28.64L205.86,26.240000000000002L203.48000000000002,26.240000000000002L203.9,28.64ZM229.66,40.92L221.8,40.92L221.8,36.2L219.8,36.2L221.56,30.84L220.1,30.84L220.1,28.64L223.14,28.64L223.14,26.759999999999998L220.78,26.759999999999998L220.78,24.56L223.14,24.56L223.14,23L225.57999999999998,23L225.57999999999998,24.56L227.34,24.56L227.34,25.98L228.06,23.7L230.54000000000002,23.7L228.98000000000002,28.64L230.22,28.64L230.22,30.84L224.04000000000002,30.84L223.72,31.78L229.66,31.78L229.66,40.92ZM227.34,38.84L227.34,37.28L224.12,37.28L224.12,38.84L227.34,38.84ZM227.34,35.4L227.34,33.86L224.12,33.86L224.12,35.4L227.34,35.4ZM226.5,28.64L227.1,26.759999999999998L225.57999999999998,26.759999999999998L225.57999999999998,28.64L226.5,28.64ZM230.86,23.2L238.06,23.2Q238.06,25.5,237.82999999999998,27.36Q237.6,29.22,237.07999999999998,31.08Q238.26,33.12,238.26,35.4Q238.26,37.46,237.26,39.519999999999996L234.42000000000002,39.519999999999996Q235.7,37.4,235.7,35.36Q235.7,33.3,234.42000000000002,31.22Q235.26,28.64,235.48000000000002,25.759999999999998L233.42000000000002,25.759999999999998L233.42000000000002,41L230.86,41L230.86,23.2ZM240.72,23.46L257.94,23.46L257.94,26.02L243.3,26.02L243.3,37.980000000000004L257.94,37.980000000000004L257.94,40.54L240.72,40.54L240.72,23.46ZM243.98000000000002,34.9Q246.9,33.78,248.78,32.58Q246.14,30,244.94,26.56L248,26.56Q249.04,29.16,250.92,30.92Q252.82,29.18,253.86,26.56L256.91999999999996,26.56Q255.72,30,253.08,32.58Q254.96,33.78,257.88,34.9L257.88,37.72Q253.84,36.44,250.94,34.36Q248,36.44,243.98000000000002,37.72L243.98000000000002,34.9ZM277.02,32.58L277.02,40.84L260.98,40.84L260.98,32.58L277.02,32.58ZM261.12,22.76L263.68,22.76L263.4,23.46L268.58000000000004,23.46L268.58000000000004,25.62L265.76,25.62L265.76,26.56L269,26.56L269,28.759999999999998L266.02,28.759999999999998Q266.65999999999997,29.240000000000002,267.38,29.54Q268.1,29.84,269,30.060000000000002L269,32.42Q267.5,32.12,266.45,31.630000000000003Q265.4,31.14,264.5,30.18Q263.58000000000004,31.14,262.55,31.630000000000003Q261.52,32.12,260,32.42L260,30.060000000000002Q260.9,29.84,261.62,29.54Q262.34000000000003,29.240000000000002,262.98,28.759999999999998L260,28.759999999999998L260,26.56L263.2,26.56L263.2,25.62L259.98,25.62L261.12,22.76ZM274.41999999999996,38.66L274.41999999999996,37.68L263.58000000000004,37.68L263.58000000000004,38.66L274.41999999999996,38.66ZM274.41999999999996,35.74L274.41999999999996,34.76L263.58000000000004,34.76L263.58000000000004,35.74L274.41999999999996,35.74ZM269.84000000000003,23.36L277.5,23.36L277.5,31.759999999999998L269.84000000000003,31.759999999999998L269.84000000000003,23.36ZM275,29.259999999999998L275,25.86L272.34000000000003,25.86L272.34000000000003,29.259999999999998L275,29.259999999999998ZM280.96000000000004,34.22L293.7,34.22L293.7,33.54L282.15999999999997,33.54L282.15999999999997,32.019999999999996L293.7,32.019999999999996L293.7,31.34L281.15999999999997,31.34L281.15999999999997,29.7L296.36,29.7L296.36,35.88L280.96000000000004,35.88L280.96000000000004,34.22ZM280,38.44Q281.48,37.72,281.72,36.3L283.98,36.3Q283.78,39.72,280,41L280,38.44ZM280,27.240000000000002L283.41999999999996,27.240000000000002L283.41999999999996,26.7L280.68,26.7L280.68,25.259999999999998L283.41999999999996,25.259999999999998L283.41999999999996,24.7L280.3,24.7L280.3,23.18L283.41999999999996,23.18L283.41999999999996,22.6L286.02,22.6L286.02,23.18L288.46000000000004,23.18L288.46000000000004,24.7L286.02,24.7L286.02,25.259999999999998L288.18,25.259999999999998L288.18,26.7L286.02,26.7L286.02,27.240000000000002L288.76,27.240000000000002L288.76,28.78L286.02,28.78L286.02,29.4L283.41999999999996,29.4L283.41999999999996,28.78L280,28.78L280,27.240000000000002ZM284.5,36.3L286.98,36.3L286.98,38.980000000000004L291.65999999999997,38.980000000000004L291.65999999999997,37.56L294.03999999999996,37.56L294.03999999999996,41L284.5,41L284.5,36.3ZM290.65999999999997,36.3L291.2,38.480000000000004L288.64,38.480000000000004L288.1,36.3L290.65999999999997,36.3ZM289.24,27.240000000000002L291.98,27.240000000000002L291.98,26.7L289.82,26.7L289.82,25.259999999999998L291.98,25.259999999999998L291.98,24.7L289.53999999999996,24.7L289.53999999999996,23.18L291.98,23.18L291.98,22.6L294.58000000000004,22.6L294.58000000000004,23.18L297.7,23.18L297.7,24.7L294.58000000000004,24.7L294.58000000000004,25.259999999999998L297.32,25.259999999999998L297.32,26.7L294.58000000000004,26.7L294.58000000000004,27.240000000000002L298,27.240000000000002L298,28.78L294.58000000000004,28.78L294.58000000000004,29.4L291.98,29.4L291.98,28.78L289.24,28.78L289.24,27.240000000000002ZM296.28,36.3Q296.52,37.72,298,38.44L298,41Q294.22,39.72,294.02,36.3L296.28,36.3ZM299.7,29.52Q301.6,26.759999999999998,302.3,23L304.78,23Q304.44,25.42,303.62,27.6L303.62,41L301.15999999999997,41L301.15999999999997,32.04Q300.52,32.84,299.7,33.64L299.7,29.52ZM303.74,41Q304.74,38.86,305.21000000000004,37.019999999999996Q305.68,35.18,305.82,33.06L304.36,33.06L304.36,30.5L305.06,30.5L305.84000000000003,25.9L304.78,25.9L304.78,23.34L308.62,23.34L307.4,30.5L308.3,30.5Q308.3,32.58,308.13,34.22Q307.96000000000004,35.86,307.56,37.480000000000004Q308.46000000000004,37.980000000000004,309.55,38.19Q310.64,38.4,312.2,38.4L318.2,38.4L318.2,40.8L312.2,40.8Q310.32,40.8,309.08000000000004,40.58Q307.84000000000003,40.36,306.84000000000003,39.84Q306.68,40.36,306.41999999999996,41L303.74,41ZM308.28,26.54L311.74,26.54L311.74,25.7L308.84000000000003,25.7L308.84000000000003,23.74L311.74,23.74L311.74,22.860001L314.18,22.860001L314.18,23.74L317.44,23.74L317.44,26.240000000000002L318.2,26.240000000000002L318.2,28.6L317.44,28.6L317.44,31.1L314.18,31.1L314.18,32.12L317.58000000000004,32.12L317.58000000000004,34.08L314.18,34.08L314.18,35.06L317.86,35.06L317.86,37.06L314.18,37.06L314.18,38.1L311.74,38.1L311.74,37.06L308.52,37.06L308.52,35.06L311.74,35.06L311.74,34.08L308.8,34.08L308.8,32.12L311.74,32.12L311.74,31.1L308.8,31.1L308.8,29.14L311.74,29.14L311.74,28.3L308.28,28.3L308.28,26.54ZM315.5,29.14L315.5,28.3L314.1,28.3L314.1,29.14L315.5,29.14ZM315.5,26.54L315.5,25.7L314.1,25.7L314.1,26.54L315.5,26.54ZM324.62,32.5L329.53999999999996,32.5L329.53999999999996,31.72L323.6,31.72L323.6,29.7L329.53999999999996,29.7L329.53999999999996,28.9L324.62,28.9L324.62,26.84L329.53999999999996,26.84L329.53999999999996,26.2L332.06,26.2L332.06,26.84L337.32,26.84L337.32,29.7L338.24,29.7L338.24,31.72L337.32,31.72L337.32,34.54L332.06,34.54L332.06,41L329.53999999999996,41L329.53999999999996,34.54L324.62,34.54L324.62,32.5ZM319.6,41Q320.3,38.84,320.56,36.769999999999996Q320.82,34.7,320.82,32L320.82,23.58L328.12,23.58L328.12,22.6L330.76,22.6L330.76,23.58L338,23.58L338,26L323.32,26L323.32,32Q323.32,34.54,323.1,36.71Q322.88,38.879999999999995,322.38,41L319.6,41ZM323.64,38.66L327.32,37.22L325.62,37.22L324.12,34.82L326.68,34.82L328,36.96L329.06,36.54L329.06,38.86L323.64,41L323.64,38.66ZM334.86,32.5L334.86,31.72L332.06,31.72L332.06,32.5L334.86,32.5ZM334.86,29.7L334.86,28.9L332.06,28.9L332.06,29.7L334.86,29.7ZM332.53999999999996,36.54L333.6,36.96L334.91999999999996,34.82L337.48,34.82L335.98,37.22L334.28,37.22L337.96000000000004,38.66L337.96000000000004,41L332.53999999999996,38.86L332.53999999999996,36.54ZM339.8,32.18L347.7,32.18L347.7,25.86L340.22,25.86L340.22,23.34L357.78,23.34L357.78,25.86L350.3,25.86L350.3,32.18L358.2,32.18L358.2,34.7L350.3,34.7L350.3,41L347.7,41L347.7,34.7L339.8,34.7L339.8,32.18ZM344.06,26.8L345.32,31.28L342.65999999999997,31.28L341.4,26.8L344.06,26.8ZM353.94,26.8L356.6,26.8L355.34000000000003,31.28L352.68,31.28L353.94,26.8ZM376.46,40.72L361.53999999999996,40.72L361.53999999999996,32.22L376.46,32.22L376.46,40.72ZM360.74,28.04L362.5,28.04L365.98,23L369.38,23L365.9,28.04L373.02,28.04L371.72,25.5L374.91999999999996,25.5L377.52,30.6L360.74,30.6L360.74,28.04ZM373.84000000000003,38.22L373.84000000000003,34.74L364.15999999999997,34.74L364.15999999999997,38.22L373.84000000000003,38.22Z" fill="#FFFFFF" fill-opacity="1"/></g></g><g><rect x="105" y="22" width="1" height="20" rx="0" fill="#FFFFFF" fill-opacity="1"/></g></g></svg>