<svg xmlns="http://www.w3.org/2000/svg" xmlns:xlink="http://www.w3.org/1999/xlink" fill="none" version="1.1" width="48" height="48" viewBox="0 0 48 48"><g><path d="M0.549746,20.321Q-0.177465,22.3333,0.0572876,24.4576L1.74336,39.7146Q1.93561,41.4542,2.74956,42.9986Q3.53849,44.4955,4.81295,45.6253Q6.08741,46.7551,7.67831,47.3678Q9.31968,48,11.0899,48L36.9102,48Q38.6803,48,40.3217,47.3678Q41.9126,46.7551,43.1871,45.6253Q44.4615,44.4955,45.2504,42.9986Q46.0644,41.4542,46.2566,39.7146L47.9427,24.4576Q48.1775,22.3333,47.4503,20.321Q46.723,18.3087,45.1799,16.8124L30.5837,2.65914Q29.2372,1.35348,27.4968,0.664934Q25.8162,0,24,0Q22.1838,0,20.5032,0.664934Q18.7628,1.35348,17.4163,2.65914L2.8201,16.8124Q1.27696,18.3087,0.549746,20.321ZM6.14171,39.2396L4.45564,23.9825Q4.33136,22.8579,4.71635,21.7926Q5.10135,20.7272,5.9183,19.9351L20.5145,5.78183Q21.2289,5.08914,22.1471,4.72584Q23.0363,4.37405,24,4.37405Q24.9637,4.37405,25.8529,4.72584Q26.7711,5.08914,27.4855,5.78183L42.0817,19.9351Q42.8987,20.7272,43.2837,21.7926Q43.6686,22.8579,43.5444,23.9825L41.8583,39.2396Q41.7563,40.1621,41.3266,40.9775Q40.9091,41.7696,40.2332,42.3687Q39.5573,42.9679,38.7155,43.2922Q37.8489,43.6259,36.9102,43.6259L32.5333,43.6259L32.5333,34.9565C32.5333,30.3461,28.7128,26.6087,24,26.6087C19.2872,26.6087,15.4667,30.3461,15.4667,34.9565L15.4667,43.6259L11.0899,43.6259Q10.1511,43.6259,9.28451,43.2922Q8.44271,42.9679,7.76679,42.3687Q7.09087,41.7696,6.67342,40.9775Q6.24366,40.1621,6.14171,39.2396ZM19.7333,43.6259L28.2667,43.6259L28.2667,34.9565C28.2667,32.6513,26.3564,30.7826,24,30.7826C21.6436,30.7826,19.7333,32.6513,19.7333,34.9565L19.7333,43.6259Z" fill-rule="evenodd" fill="#2882E8" fill-opacity="1"/></g></svg>